<svg width="282" height="294" viewBox="0 0 282 294" fill="none" xmlns="http://www.w3.org/2000/svg">
<path d="M0.330963 111.09C1.37512 97.8021 4.15561 87.6891 9.08307 79.2577C14.2979 70.35 22.3813 62.63 34.5299 54.9689C36.6768 53.6107 38.8355 52.276 40.9825 50.9472C44.0563 49.0422 47.2357 47.0725 50.3036 45.0675C51.0193 44.6031 51.7466 44.1503 52.4682 43.6976L53.8173 42.845C54.2652 42.5699 54.6128 42.1576 54.8087 41.6691C55.8998 38.8822 55.7062 35.0898 55.5478 31.9618C55.5478 31.6032 55.4598 31.0975 55.3836 30.5625C55.1783 29.0573 54.797 26.3409 55.7531 23.9126C55.8895 23.5907 55.9083 23.2311 55.8064 22.8967C55.7045 22.5623 55.4883 22.2746 55.1959 22.084C54.289 21.5323 53.5772 20.7099 53.1603 19.7321C52.7615 18.8422 52.634 17.854 52.7936 16.8916C52.9533 15.9292 53.3931 15.0356 54.0578 14.3229C55.9526 12.2591 56.9909 9.91902 56.7914 8.03165C56.6527 6.93992 56.8448 5.83161 57.3428 4.85076C57.7861 4.03763 58.4392 3.35875 59.2337 2.88505C60.0283 2.41135 60.9352 2.16022 61.8596 2.15788C63.0518 2.14863 64.2046 2.58507 65.0929 3.38197C65.9813 4.17888 66.5414 5.27905 66.6639 6.46766C67.1391 10.2777 66.1477 14.1112 64.0008 17.7389C63.4142 18.6856 63.8248 19.25 64.7868 19.4734C65.9326 19.7216 67.0581 20.0557 68.1539 20.473C70.7115 21.4725 73.2104 22.6308 75.5451 23.7362C80.0795 25.8764 84.3441 27.8931 88.8786 27.8931H89.3361C89.5318 27.8888 89.7247 27.8449 89.9031 27.764C90.0815 27.6832 90.2418 27.5671 90.3744 27.4227C90.6032 27.1817 90.8319 26.923 91.0548 26.6466C91.7679 25.724 92.426 24.76 93.0258 23.7597C93.9604 22.1674 95.0405 20.6656 96.2521 19.2735C97.4044 17.9615 98.8235 16.9117 100.414 16.1947C102.004 15.4777 103.73 15.1101 105.474 15.1166C106.35 15.1194 107.224 15.206 108.084 15.3753C108.305 15.4235 108.536 15.4012 108.745 15.3118C108.953 15.2223 109.128 15.07 109.247 14.876C109.365 14.6821 109.419 14.4561 109.403 14.2295C109.387 14.0028 109.301 13.7868 109.157 13.6114C107.438 11.3978 106.235 8.82614 105.638 6.08549C105.478 5.35695 105.485 4.60181 105.657 3.87608C105.828 3.15036 106.161 2.47268 106.629 1.8933C107.108 1.30621 107.71 0.832165 108.392 0.504922C109.075 0.17768 109.821 0.00529687 110.577 5.46357e-05C111.705 -0.00528813 112.801 0.381366 113.676 1.09423C114.552 1.80709 115.155 2.80212 115.381 3.91002C116.367 8.53142 121.564 11.8534 125.752 13.829C126.758 14.2952 127.575 15.0926 128.066 16.0885C128.557 17.0844 128.692 18.2188 128.451 19.3029C128.195 20.4321 127.566 21.4416 126.666 22.1682C125.767 22.8949 124.649 23.2961 123.494 23.307C122.397 23.1365 122.01 24.1595 122.673 24.6769C124.039 25.747 125.242 26.9171 126.591 27.8402H126.621C139.526 28.4281 152.965 32.5439 163.576 39.1526C173.719 45.4615 182.471 54.5279 189.586 66.1167C190.76 68.057 191.839 70.0384 192.865 71.9552C193.343 72.8371 193.82 73.7171 194.297 74.5951L194.42 74.8186C195.479 76.5921 196.35 78.4721 197.019 80.4277C197.213 81.0267 197.601 81.5438 198.121 81.8976C200.809 83.8165 203.183 86.141 205.161 88.7886C207.152 91.3527 208.885 94.108 210.335 97.0142C210.57 97.515 210.937 97.9419 211.396 98.2489C213.083 99.3721 214.577 100.762 215.819 102.365C216.221 102.9 216.571 103.473 216.863 104.076C216.922 104.193 216.998 104.34 217.057 104.44C217.415 104.658 217.785 104.854 218.166 105.028C218.518 105.199 218.87 105.369 219.186 105.54C220.314 106.155 221.193 107.145 221.674 108.338L221.832 108.768C222.087 109.483 222.588 110.083 223.246 110.461C227.376 112.927 231.299 115.725 234.978 118.828C241.664 124.361 247.758 130.576 253.162 137.372C259.679 145.497 265.135 154.422 269.399 163.93C274.497 175.396 277.09 187.179 279.125 198.203C281.055 208.628 281.97 217.329 282 225.579C282.011 226.56 281.728 227.523 281.187 228.342C280.646 229.16 279.873 229.797 278.967 230.171C276.92 234.216 273.136 237.173 269.669 238.919C269.277 239.111 268.934 239.392 268.667 239.738C268.401 240.085 268.218 240.489 268.132 240.919C267.599 243.744 266.679 246.482 265.399 249.056C264.535 250.775 263.504 252.404 262.319 253.918L262.249 254.001C261.909 254.442 261.539 254.894 261.117 255.377L260.724 255.823C260.137 256.476 259.503 257.14 258.829 257.799C257.802 258.799 256.664 259.804 255.456 260.786C255.075 261.092 254.682 261.403 254.283 261.691C253.538 262.279 252.74 262.867 251.936 263.408C251.543 263.69 251.144 263.967 250.763 264.231C250.008 264.749 249.254 265.249 248.499 265.731L248.358 265.819L247.296 266.483C246.909 266.718 246.51 266.954 246.123 267.177C245.736 267.4 245.361 267.612 245.02 267.765C244.68 267.918 244.305 268.153 243.953 268.353C243.284 268.7 242.592 269.041 241.888 269.37C241.32 269.63 240.866 270.087 240.609 270.658C238.884 274.544 235.148 277.643 231.945 279.724C219.738 287.644 204.961 291.913 189.258 292.071H188.519C184.597 292.087 180.678 291.85 176.787 291.36C176.557 291.338 176.326 291.362 176.106 291.432C175.886 291.502 175.683 291.615 175.508 291.766C174.687 292.46 172.769 294 170.34 294H170.029C169.167 293.947 168.363 293.894 167.571 293.818L167.125 293.782L166.028 293.671L165.301 293.588C163.066 293.33 160.608 292.959 158.033 292.489C156.86 292.277 155.651 292.036 154.414 291.772H154.373L152.372 291.342C151.346 291.113 150.29 290.866 149.234 290.613L148.442 290.419C147.756 290.255 147.058 290.078 146.336 289.896L146.166 289.855L144.6 289.449C144.107 289.314 143.603 289.179 143.069 289.043C138.423 287.797 133.302 286.286 127.847 284.551C116.449 280.93 102.558 275.585 96.2111 266.324C95.351 265.546 94.7975 264.484 94.6507 263.332C94.3809 261.397 94.158 259.528 93.9937 257.828C93.9937 257.705 93.9292 257.205 93.9292 257.205C93.8881 256.776 93.8529 256.347 93.8236 255.941C93.7473 255.124 93.6887 254.324 93.6476 253.536C93.6312 253.251 93.5067 252.982 93.2996 252.786C93.0925 252.589 92.8184 252.479 92.5331 252.478H92.099H91.8233C88.7143 252.396 84.3441 251.037 80.6368 245.246C78.5341 241.945 76.6301 238.521 74.935 234.992C72.4771 234.092 71.1866 231.993 70.4534 230.794L70.2481 230.447L69.902 229.929C68.9106 228.46 67.2505 225.99 67.755 223.121C67.7998 222.881 67.7847 222.633 67.711 222.4C67.6374 222.167 67.5074 221.956 67.3327 221.786C65.8102 220.457 64.1412 219.307 62.3583 218.358C62.2388 218.293 62.1233 218.22 62.0122 218.141C60.3927 217.054 58.9519 215.721 57.7417 214.19C57.4015 213.796 57.0671 213.402 56.7269 213.043C55.5171 211.697 54.094 210.561 52.5151 209.68L52.3156 209.568C51.0603 208.886 47.7225 207.075 48.0159 203.236C48.2915 199.585 51.8053 197.744 52.8729 197.268C54.5559 196.55 56.3704 196.194 58.1992 196.221C60.3811 196.275 62.5482 196.597 64.6519 197.18C65.479 197.392 66.2768 197.633 67.0452 197.897C67.3754 198.022 67.7405 198.017 68.067 197.882C68.3935 197.748 68.6572 197.495 68.805 197.174C69.2644 196.149 69.8433 195.182 70.5296 194.293C70.8933 193.817 74.2311 189.648 78.4429 189.648C79.6837 189.643 80.8954 190.025 81.9097 190.742C84.0215 192.241 84.7371 194.61 84.0508 197.797C83.4935 200.343 83.5229 201.66 84.1681 203.23C85.2822 205.742 85.8558 208.46 85.8517 211.209C85.8434 211.5 85.8977 211.789 86.0111 212.057C86.1245 212.325 86.2942 212.565 86.5087 212.761C88.4503 214.525 90.5445 216.753 91.3716 219.575C91.5041 219.987 91.7453 220.355 92.0697 220.64L92.6562 221.186C92.782 221.309 92.9318 221.404 93.0961 221.465C93.2604 221.526 93.4356 221.552 93.6106 221.542C93.7856 221.531 93.9564 221.484 94.1123 221.404C94.2681 221.323 94.4056 221.211 94.5158 221.075C94.6888 220.859 94.8728 220.653 95.0672 220.457C95.4139 220.1 95.6414 219.644 95.7183 219.152C96.6233 213.712 97.9172 208.343 99.5899 203.089L99.6251 202.965L99.8011 202.419C99.9477 201.966 100.094 201.513 100.241 201.084L100.282 200.96C102.939 193.117 106.213 184.092 111.428 176.295C111.486 176.207 111.545 176.119 111.609 176.037C111.761 175.834 111.878 175.608 111.955 175.366C112.419 174.043 112.929 172.674 113.516 171.215C113.579 171.061 113.603 170.893 113.586 170.727C113.568 170.561 113.509 170.402 113.415 170.264C113.321 170.126 113.194 170.014 113.045 169.938C112.897 169.862 112.732 169.824 112.566 169.828H111.844C111.45 169.84 111.062 169.934 110.706 170.104C107.417 171.702 104.042 173.119 100.599 174.349C94.3339 176.519 87.7992 176.93 81.4815 177.33L80.3552 177.407C76.6303 177.648 73.1811 177.765 69.7964 177.765C67.6318 177.765 65.4907 177.712 63.4376 177.612C52.0517 177.024 37.8266 175.225 28.7988 166.012C27.4042 164.604 26.2189 163.002 25.2791 161.255C24.5341 160.902 23.8185 160.526 23.1322 160.132C22.1115 159.544 21.0263 158.992 19.8824 158.404C16.8555 156.857 13.729 155.258 11.0423 152.694C7.81015 149.596 5.21735 145.439 3.33435 140.347C0.354431 132.327 -0.589996 123.043 0.348572 111.149" fill="white"/>
<path d="M79.5867 230.87C79.5457 230.911 79.5457 230.953 79.5457 230.994L79.4929 231.017C79.3551 231.338 79.2889 231.686 79.299 232.035C79.3092 232.384 79.3953 232.727 79.5515 233.04C80.157 234.019 80.6285 235.075 80.9535 236.18C81.0004 236.35 81.065 236.55 81.1354 236.768C81.2292 236.99 81.3735 237.188 81.5567 237.345C81.74 237.502 81.9572 237.615 82.1912 237.673C82.2099 237.963 82.2732 238.249 82.379 238.52C83.3468 241.06 85.4586 243.488 87.5352 245.175C88.6429 246.091 89.9551 246.724 91.3598 247.022C91.9196 247.138 92.4893 247.199 93.061 247.204C93.8857 247.208 94.7071 247.098 95.5013 246.875C96.3024 246.654 97.0715 246.33 97.789 245.91L97.8711 245.863C97.8242 246.251 97.8242 246.645 97.8242 247.039V247.039V247.721C97.7059 252.348 98.0359 256.976 98.8097 261.538C98.8918 262.05 98.9857 262.556 99.0795 263.061L99.2907 263.285C99.3623 263.501 99.4588 263.708 99.5781 263.902C102.112 267.618 107.837 273.815 129.061 280.553C134.686 282.341 139.672 283.816 144.101 284.992L145.644 285.404L147.14 285.792L149.375 286.38L150.12 286.556C151.195 286.815 152.233 287.056 153.235 287.28L153.425 287.322C154.023 287.455 154.615 287.586 155.188 287.703H155.229C156.461 287.962 157.628 288.191 158.749 288.397C161.353 288.873 163.67 289.22 165.747 289.461L166.187 289.508C166.627 289.555 167.049 289.602 167.466 289.637L167.882 289.678C168.709 289.749 169.489 289.808 170.228 289.849C171.217 289.768 172.14 289.319 172.815 288.591C172.927 288.479 173.027 288.367 173.12 288.256C173.21 288.145 173.292 288.029 173.367 287.909C173.504 287.748 173.589 287.55 173.611 287.34C173.633 287.13 173.591 286.918 173.49 286.733C178.708 287.544 183.983 287.937 189.264 287.909C203.471 287.779 217.755 284.022 229.739 276.243C232.707 274.309 237.113 270.805 237.453 266.807C239.031 266.16 240.58 265.454 242.099 264.666L243.073 264.149C243.419 263.955 243.747 263.761 244.105 263.561C244.463 263.361 244.82 263.144 245.178 262.927L245.179 262.926C245.536 262.709 245.894 262.491 246.246 262.262L246.305 262.221C247.024 261.766 247.748 261.288 248.475 260.786C248.85 260.533 249.219 260.275 249.588 260.017L249.59 260.016C250.329 259.492 251.068 258.951 251.796 258.393L252.875 257.54C253.95 256.67 254.981 255.757 255.966 254.8C256.547 254.212 257.116 253.624 257.656 253.036L258.025 252.619C258.383 252.207 258.729 251.784 259.058 251.355C260.073 250.058 260.957 248.664 261.697 247.192C263.368 243.847 264.329 240.192 264.519 236.456C264.516 236.442 264.516 236.428 264.519 236.415C264.941 236.309 265.317 236.197 265.633 236.085C269.487 234.763 273.811 231.652 275.57 227.66C275.641 227.501 275.694 227.378 275.77 227.166C275.846 226.954 275.899 226.772 275.975 226.537C276.052 226.302 276.11 226.061 276.163 225.825C276.28 225.269 276.341 224.701 276.345 224.132C276.361 214.175 275.243 204.249 273.013 194.546C272.532 192.37 272.012 190.197 271.453 188.025C271.312 187.473 271.171 186.92 271.024 186.373C270.848 185.609 270.643 184.85 270.438 184.092C270.268 183.463 270.092 182.839 269.91 182.216C269.798 181.816 269.687 181.428 269.57 181.04C268.991 179.057 268.371 177.085 267.71 175.125C267.319 173.969 266.928 172.824 266.537 171.692C266.332 171.192 266.144 170.68 265.95 170.181C265.757 169.681 265.534 169.116 265.364 168.681C265.193 168.246 265 167.782 264.842 167.376C264.683 166.97 264.513 166.559 264.343 166.153C261.825 160.052 258.738 154.203 255.122 148.685C250.622 141.966 245.393 135.768 239.53 130.205C236.35 127.165 233.001 124.284 229.604 121.509C226.624 119.051 223.24 117.146 220.465 114.453C219.968 113.994 219.362 113.668 218.705 113.507C218.437 113.434 218.165 113.377 217.89 113.336L217.544 113.295L217.045 113.26H216.91C217.368 116.346 216.934 119.533 216.482 122.626C215.884 126.701 215.209 130.752 214.23 134.75C214.13 135.132 214.036 135.508 213.936 135.885L213.936 135.885C213.895 136.05 213.854 136.214 213.807 136.384C213.557 137.337 213.287 138.287 212.998 139.236C212.863 139.683 212.722 140.124 212.581 140.571L212.511 140.782C212.37 141.235 212.2 141.752 212.065 142.135L212.006 142.302C211.889 142.632 211.769 142.974 211.648 143.311C211.641 143.343 211.629 143.375 211.613 143.405C211.566 143.546 211.514 143.681 211.461 143.816C211.446 143.875 211.427 143.932 211.402 143.987C211.285 144.328 211.156 144.675 211.021 145.01C210.857 145.457 210.686 145.898 210.505 146.339C210.276 146.927 210.035 147.514 209.789 148.102C209.636 148.467 209.525 148.755 209.32 149.184C209.114 149.614 208.927 150.043 208.733 150.472L208.422 151.142C208.117 151.793 207.806 152.44 207.489 153.083C207.372 153.324 207.255 153.559 207.132 153.794L206.703 154.635L206.263 155.287L206.253 155.308C205.928 155.924 205.597 156.552 205.26 157.134C205.131 157.369 204.996 157.604 204.861 157.839C204.533 158.427 204.193 159.015 203.841 159.603C203.688 159.862 203.53 160.132 203.372 160.391L202.738 161.408C202.668 161.526 202.591 161.643 202.515 161.755C202.081 162.449 201.629 163.131 201.172 163.819L200.796 164.377C200.37 165.012 199.93 165.641 199.476 166.265L199.025 166.888C198.491 167.623 197.94 168.358 197.388 169.075C197.206 169.334 197.007 169.587 196.802 169.84C196.804 169.853 196.804 169.867 196.802 169.881C196.626 170.145 196.42 170.392 196.215 170.651L195.969 170.957L195.441 171.598C195.382 171.674 195.317 171.75 195.253 171.821C194.825 172.332 194.402 172.844 193.962 173.344L193.622 173.738C193.581 173.779 193.546 173.832 193.505 173.873C192.531 174.978 191.534 176.062 190.513 177.124C189.923 177.736 189.322 178.341 188.712 178.941L187.768 179.864C180.601 186.738 172.432 192.478 163.541 196.886C163.172 196.398 162.82 195.898 162.491 195.375C161.672 193.999 160.981 192.55 160.426 191.047C160.188 190.24 159.789 189.49 159.253 188.843C159.118 188.705 158.94 188.618 158.749 188.596C156.725 187.555 154.302 190.648 151.956 195.322C151.473 195.205 150.968 195.212 150.489 195.344C150.01 195.475 149.572 195.727 149.216 196.075C148.794 196.442 148.435 196.877 148.155 197.362C147.638 198.138 147.134 198.92 146.653 199.714C145.86 198.618 145.167 197.453 144.582 196.233C143.937 194.816 143.908 193.317 142.905 192.059C141.145 189.854 138.441 188.537 136.024 187.055C138.165 186.326 140.453 185.991 142.611 185.291C145.204 184.439 147.779 183.545 150.307 182.522C154.574 180.805 158.731 178.825 162.755 176.595C177.101 168.644 189.244 157.234 198.086 143.399C199.22 141.619 200.268 139.812 201.23 137.978C200.711 137.708 200.153 137.52 199.576 137.419C198.015 137.203 196.43 137.246 194.883 137.548C191.727 138.037 188.748 139.742 186.243 141.664C184.319 143.149 182.798 145.094 181.82 147.32C179.633 148.176 177.578 149.336 175.713 150.766C173.15 152.742 169.354 157.786 171.114 161.173C168.735 162.008 166.507 163.227 164.521 164.783C163.541 165.547 162.653 166.423 161.875 167.394C161.705 167.223 161.535 167.07 161.365 166.9C159.681 165.259 156.391 165.659 154.29 165.988L153.815 166.071L153.581 166.118L153.082 166.229C152.707 166.323 152.331 166.441 151.962 166.57C151.508 166.72 151.061 166.893 150.624 167.088L150.126 167.311L149.92 167.411L149.545 167.599L149.228 167.764L148.712 168.046C147.645 168.66 146.622 169.348 145.65 170.104C143.696 171.609 141.503 174.185 140.881 176.666C140.798 176.999 140.737 177.336 140.699 177.677L140.458 177.718C139.146 177.938 137.87 178.334 136.663 178.894C136.933 178.465 137.244 178.042 137.52 177.607C138.137 176.702 138.514 175.655 138.617 174.563C138.719 173.472 138.544 172.373 138.106 171.368C137.127 169.281 134.452 168.858 132.434 168.74C129.606 168.575 126.175 169.892 123.787 171.262C123.255 171.568 122.739 171.897 122.239 172.25L121.787 172.579L121.505 172.791C121.048 173.152 120.608 173.528 120.185 173.92C119.945 174.149 119.704 174.384 119.47 174.626C119.118 178.612 120.15 182.822 123.183 185.468C122.162 185.86 121.237 186.468 120.471 187.25C119.704 188.032 119.115 188.97 118.742 190.001C117.775 192.653 118.355 196.427 115.305 197.45C113.745 190.789 115.105 183.786 117.387 177.236C117.34 177.313 117.288 177.383 117.241 177.454C116.988 177.836 116.725 178.236 116.455 178.63L116.361 178.771L116.062 179.194L116.367 178.782L116.818 178.147C116.731 178.43 116.585 178.69 116.39 178.912C115.98 179.453 115.352 180.058 115.088 180.411C114.824 180.764 114.554 181.105 114.296 181.458C112.973 183.156 111.74 184.922 110.6 186.749C108.313 190.548 106.846 194.981 105.227 199.097C104.887 199.943 104.564 200.837 104.259 201.707C104.201 201.878 104.148 202.048 104.089 202.219C103.925 202.683 103.772 203.153 103.62 203.623L103.62 203.624C103.514 203.953 103.409 204.282 103.309 204.612C103.297 204.64 103.287 204.67 103.28 204.7C103.277 204.719 103.277 204.739 103.28 204.759C101.59 210.425 100.399 216.229 99.7189 222.104V222.174C99.6603 222.656 99.6133 223.144 99.5547 223.632C99.3904 223.738 99.232 223.844 99.0737 223.962C97.9817 224.754 97.1422 225.847 96.6568 227.107C96.2185 228.362 95.7053 229.589 95.12 230.782C95.0672 230.876 95.0202 230.976 94.9616 231.076C94.8267 231.352 94.6741 231.629 94.5216 231.899C94.4009 231.74 94.2518 231.604 94.0817 231.499C93.5915 230.978 93.0641 230.492 92.5037 230.047C92.2738 229.285 91.8905 228.579 91.3774 227.972C90.7791 227.26 90.1749 226.707 89.6704 226.084C89.5623 225.944 89.4315 225.822 89.2833 225.726C89.1674 225.589 89.0233 225.478 88.8609 225.402C88.877 225.344 88.8806 225.283 88.8715 225.223C88.8624 225.163 88.8408 225.106 88.8081 225.055C88.5441 224.726 88.2919 224.432 88.0103 224.138L87.8637 223.979C87.7742 223.906 87.6682 223.855 87.5547 223.831C87.4413 223.808 87.3239 223.812 87.2126 223.844C87.1023 223.862 86.9942 223.892 86.8899 223.932C86.6821 224.006 86.4849 224.107 86.3033 224.232C86.0092 224.419 85.7797 224.692 85.6463 225.014C85.2142 225.38 84.91 225.874 84.7782 226.425C84.7581 226.516 84.7581 226.611 84.7782 226.702C83.8351 226.976 82.9447 227.407 82.1443 227.977C81.232 228.574 80.4579 229.36 79.8742 230.282C79.7621 230.47 79.666 230.667 79.5867 230.87Z" fill="#3263AD"/>
<path d="M136.053 187.037C138.47 188.519 141.174 189.836 142.934 192.041C143.937 193.299 143.966 194.799 144.612 196.216C145.197 197.436 145.89 198.6 146.682 199.696C147.163 198.903 147.668 198.121 148.184 197.345C148.465 196.859 148.823 196.424 149.246 196.057C149.243 196.037 149.243 196.018 149.246 195.998C149.601 195.652 150.039 195.402 150.517 195.272C150.995 195.141 151.498 195.134 151.979 195.251C154.326 190.577 156.754 187.484 158.784 188.525C158.973 188.548 159.149 188.635 159.283 188.772C159.823 189.419 160.223 190.172 160.456 190.983C161.01 192.488 161.701 193.938 162.521 195.316C162.849 195.833 163.195 196.339 163.571 196.827C172.457 192.429 180.624 186.701 187.791 179.841C188.108 179.541 188.425 179.253 188.736 178.924C189.346 178.324 189.946 177.718 190.537 177.107C201.876 165.347 210.276 150.737 214.206 134.773C215.186 130.775 215.86 126.724 216.459 122.649C216.91 119.557 217.344 116.37 216.887 113.277C216.759 112.389 216.546 111.515 216.253 110.667C214.494 109.726 212.875 109.032 211.871 107.221C210.965 105.562 209.668 104.149 208.094 103.106C208.761 107.16 208.818 111.293 208.264 115.365C207.917 118.126 207.402 120.863 206.721 123.561C206.032 126.377 205.146 129.142 204.07 131.833C203.235 133.924 202.291 135.969 201.242 137.96C200.28 139.795 199.232 141.602 198.098 143.381C189.255 157.217 177.113 168.626 162.767 176.578C158.743 178.808 154.586 180.787 150.319 182.504C147.791 183.527 145.216 184.427 142.623 185.274C140.464 185.973 138.177 186.308 136.036 187.037" fill="#FBF4F8"/>
<path d="M149.216 196.063C149.572 195.715 150.01 195.464 150.489 195.332C150.968 195.2 151.473 195.193 151.956 195.31C154.302 190.636 156.725 187.543 158.749 188.584C158.94 188.606 159.118 188.693 159.253 188.831C159.789 189.478 160.188 190.229 160.426 191.036C160.981 192.539 161.672 193.987 162.491 195.363C162.82 195.886 163.172 196.386 163.541 196.874C172.435 192.459 180.605 186.709 187.768 179.823C180.601 186.685 172.434 192.413 163.547 196.809C163.172 196.321 162.826 195.816 162.497 195.298C161.68 193.919 160.989 192.469 160.432 190.965C160.2 190.154 159.8 189.401 159.259 188.754C159.126 188.618 158.95 188.53 158.76 188.507C156.731 187.467 154.296 190.559 151.956 195.234C151.474 195.117 150.971 195.124 150.493 195.254C150.015 195.385 149.578 195.635 149.222 195.98C149.22 196 149.22 196.02 149.222 196.039" fill="white"/>
<path d="M115.375 197.392C118.426 196.368 117.845 192.594 118.813 189.942C119.185 188.911 119.775 187.973 120.541 187.191C121.307 186.409 122.232 185.801 123.253 185.409C120.221 182.763 119.188 178.553 119.54 174.567C119.611 173.747 119.742 172.933 119.933 172.133C119.952 172.03 119.995 171.934 120.056 171.85C120.01 171.562 119.951 171.262 119.886 170.992C119.03 172.985 118.197 175.055 117.458 177.177C115.176 183.727 113.815 190.73 115.375 197.392Z" fill="#F8EFF5"/>
<path d="M127.929 206.875V206.964C127.929 209.315 131.583 209.38 131.607 207.005V206.899C131.607 204.518 127.952 204.482 127.923 206.852" fill="#2C4C98"/>
<path d="M118.32 197.38C118.431 200.614 118.808 203.833 119.446 207.005C119.992 210.244 120.344 213.472 120.837 216.741C121.582 221.663 122.233 227.013 123.993 231.729C125.161 228.594 126.551 225.546 128.152 222.609C126.292 222.133 126.48 218.976 128.674 218.999C129.121 218.991 129.555 219.158 129.882 219.464C130.791 217.835 131.724 216.23 132.639 214.642C135.942 208.886 139.326 202.977 143.409 197.715C142.764 196.498 142.617 195.216 142.048 193.97C140.875 191.394 137.355 189.854 134.821 188.319C132.445 194.963 126.796 200.708 126.333 207.928C126.263 209.039 124.52 209.027 124.573 207.928C124.784 204.582 126.034 201.584 127.565 198.673C126.767 194.752 126.351 190.536 124.632 186.861C123.794 187.037 123.006 187.396 122.323 187.914C121.641 188.431 121.081 189.094 120.684 189.854C119.886 191.359 120.01 193.176 119.546 194.793C119.298 195.75 118.857 196.647 118.25 197.427" fill="#EBD6E8"/>
<path d="M161.647 232.875L161.799 233.046C161.992 233.287 162.172 233.538 162.339 233.798C162.626 234.239 162.925 234.733 163.195 235.239C163.377 235.568 163.565 235.903 163.782 236.232L163.852 236.35L163.934 236.479C164.081 236.72 164.233 236.967 164.392 237.197C164.55 237.426 164.58 237.473 164.679 237.602C164.839 237.807 165.01 238.003 165.19 238.19C165.623 238.699 166.184 239.083 166.814 239.302C168.304 239.748 170.51 238.537 171.865 237.932C171.936 237.905 172.004 237.874 172.07 237.838C172.038 237.866 172.009 237.897 171.982 237.932C171.801 238.106 171.663 238.321 171.58 238.559C171.498 238.797 171.473 239.052 171.507 239.302C171.22 239.242 170.922 239.271 170.651 239.384C170.295 239.259 169.908 239.256 169.551 239.376C169.194 239.497 168.887 239.733 168.68 240.048C168.586 240.189 168.524 240.349 168.498 240.517C168.471 240.684 168.482 240.855 168.527 241.019C168.578 241.197 168.662 241.365 168.774 241.512C168.868 241.648 168.967 241.777 169.073 241.906L168.187 241.066C167.8 240.701 167.401 240.342 167.014 239.984C166.297 239.356 165.547 238.767 164.767 238.22C164.702 238.177 164.633 238.139 164.562 238.108C164.406 237.817 164.279 237.512 164.181 237.197C164.12 236.988 164.014 236.796 163.87 236.635C163.725 236.473 163.547 236.346 163.347 236.262C163.147 236.179 162.931 236.141 162.715 236.152C162.499 236.164 162.288 236.223 162.098 236.327C162.034 236.027 161.975 235.739 161.922 235.433C161.869 235.127 161.811 234.845 161.758 234.539C161.705 234.233 161.658 233.951 161.617 233.64C161.576 233.328 161.523 233.052 161.482 232.74C161.539 232.778 161.59 232.824 161.635 232.875H161.647ZM161.635 232.875L161.787 233.046C161.98 233.287 162.16 233.538 162.327 233.798C162.614 234.239 162.914 234.733 163.183 235.239C163.365 235.568 163.553 235.903 163.77 236.232L163.84 236.35L163.923 236.479C164.069 236.72 164.222 236.967 164.38 237.197C164.538 237.426 164.568 237.473 164.668 237.602C164.827 237.807 164.998 238.003 165.178 238.19C165.614 238.701 166.179 239.085 166.814 239.302C168.304 239.748 170.51 238.537 171.865 237.932C171.936 237.905 172.004 237.874 172.07 237.838C172.038 237.866 172.009 237.897 171.982 237.932C171.801 238.106 171.663 238.321 171.58 238.559C171.498 238.797 171.473 239.052 171.507 239.302C171.22 239.242 170.922 239.271 170.651 239.384C170.295 239.259 169.908 239.256 169.551 239.376C169.194 239.497 168.887 239.733 168.68 240.048C168.586 240.189 168.524 240.349 168.498 240.517C168.471 240.684 168.482 240.855 168.527 241.019C168.578 241.197 168.662 241.365 168.774 241.512C168.868 241.648 168.967 241.777 169.073 241.906L168.187 241.066C167.8 240.701 167.401 240.342 167.014 239.984C166.297 239.356 165.547 238.767 164.767 238.22C164.702 238.177 164.633 238.139 164.562 238.108C164.406 237.817 164.279 237.512 164.181 237.197C164.12 236.988 164.014 236.796 163.87 236.635C163.725 236.473 163.547 236.346 163.347 236.262C163.147 236.179 162.931 236.141 162.715 236.152C162.499 236.164 162.288 236.223 162.098 236.327C162.034 236.027 161.975 235.739 161.922 235.433C161.869 235.127 161.811 234.845 161.758 234.539C161.705 234.233 161.658 233.951 161.617 233.64C161.576 233.328 161.523 233.052 161.482 232.74C161.539 232.778 161.59 232.824 161.635 232.875ZM161.635 232.875L161.787 233.046C161.98 233.287 162.16 233.538 162.327 233.798C162.614 234.239 162.914 234.733 163.183 235.239C163.365 235.568 163.553 235.903 163.77 236.232L163.84 236.35L163.923 236.479C164.069 236.72 164.222 236.967 164.38 237.197C164.538 237.426 164.568 237.473 164.668 237.602C164.827 237.807 164.998 238.003 165.178 238.19C165.614 238.701 166.179 239.085 166.814 239.302C168.304 239.748 170.51 238.537 171.865 237.932C171.936 237.905 172.004 237.874 172.07 237.838C172.038 237.866 172.009 237.897 171.982 237.932C171.801 238.106 171.663 238.321 171.58 238.559C171.498 238.797 171.473 239.052 171.507 239.302C171.22 239.242 170.922 239.271 170.651 239.384C170.295 239.259 169.908 239.256 169.551 239.376C169.194 239.497 168.887 239.733 168.68 240.048C168.586 240.189 168.524 240.349 168.498 240.517C168.471 240.684 168.482 240.855 168.527 241.019C168.578 241.197 168.662 241.365 168.774 241.512C168.868 241.648 168.967 241.777 169.073 241.906L168.187 241.066C167.8 240.701 167.401 240.342 167.014 239.984C166.297 239.356 165.547 238.767 164.767 238.22C164.702 238.177 164.633 238.139 164.562 238.108C164.406 237.817 164.279 237.512 164.181 237.197C164.12 236.988 164.014 236.796 163.87 236.635C163.725 236.473 163.547 236.346 163.347 236.262C163.147 236.179 162.931 236.141 162.715 236.152C162.499 236.164 162.288 236.223 162.098 236.327C162.034 236.027 161.975 235.739 161.922 235.433C161.869 235.127 161.811 234.845 161.758 234.539C161.705 234.233 161.658 233.951 161.617 233.64C161.576 233.328 161.523 233.052 161.482 232.74C161.539 232.778 161.59 232.824 161.635 232.875ZM161.635 232.875L161.787 233.046C161.98 233.287 162.16 233.538 162.327 233.798C162.614 234.239 162.914 234.733 163.183 235.239C163.365 235.568 163.553 235.903 163.77 236.232L163.84 236.35L163.923 236.479C164.069 236.72 164.222 236.967 164.38 237.197C164.538 237.426 164.568 237.473 164.668 237.602C164.827 237.807 164.998 238.003 165.178 238.19C165.614 238.701 166.179 239.085 166.814 239.302C168.304 239.748 170.51 238.537 171.865 237.932C171.936 237.905 172.004 237.874 172.07 237.838C172.038 237.866 172.009 237.897 171.982 237.932C171.801 238.106 171.663 238.321 171.58 238.559C171.498 238.797 171.473 239.052 171.507 239.302C171.22 239.242 170.922 239.271 170.651 239.384C170.295 239.259 169.908 239.256 169.551 239.376C169.194 239.497 168.887 239.733 168.68 240.048C168.586 240.189 168.524 240.349 168.498 240.517C168.471 240.684 168.482 240.855 168.527 241.019C168.578 241.197 168.662 241.365 168.774 241.512C168.868 241.648 168.967 241.777 169.073 241.906L168.187 241.066C167.8 240.701 167.401 240.342 167.014 239.984C166.297 239.356 165.547 238.767 164.767 238.22C164.702 238.177 164.633 238.139 164.562 238.108C164.406 237.817 164.279 237.512 164.181 237.197C164.12 236.988 164.014 236.796 163.87 236.635C163.725 236.473 163.547 236.346 163.347 236.262C163.147 236.179 162.931 236.141 162.715 236.152C162.499 236.164 162.288 236.223 162.098 236.327C162.034 236.027 161.975 235.739 161.922 235.433C161.869 235.127 161.811 234.845 161.758 234.539C161.705 234.233 161.658 233.951 161.617 233.64C161.576 233.328 161.523 233.052 161.482 232.74C161.539 232.778 161.59 232.824 161.635 232.875Z" fill="#5074B8"/>
<path d="M159.652 232.499C159.652 233.087 159.652 233.675 159.652 234.263C159.652 234.451 159.652 234.639 159.652 234.851C159.705 236.544 159.799 238.237 159.922 239.931C159.957 240.354 159.986 240.772 160.016 241.195C160.069 241.83 160.121 242.471 160.18 243.106C160.239 243.741 160.286 244.382 160.344 245.017C160.432 246.051 160.532 247.098 160.626 248.133C160.714 249.027 160.796 249.926 160.89 250.82C161.019 252.149 161.16 253.476 161.312 254.8C162.321 253.278 163.524 251.861 163.465 249.826C163.365 246.522 161.981 243.229 161.119 240.072C160.444 237.589 159.943 235.063 159.617 232.511" fill="#FFEFB2"/>
<path d="M161.166 229.959C161.254 230.876 161.359 231.799 161.488 232.716C161.535 232.749 161.578 232.786 161.617 232.828C161.676 232.899 161.74 232.969 161.799 233.046C161.992 233.287 162.172 233.538 162.339 233.798C162.462 233.986 162.585 234.181 162.702 234.386C162.755 234.469 162.808 234.557 162.855 234.645C162.972 234.839 163.084 235.033 163.195 235.233C163.383 235.562 163.571 235.897 163.782 236.227C163.835 236.309 163.887 236.391 163.934 236.474C164.081 236.715 164.233 236.962 164.392 237.191C164.55 237.42 164.58 237.467 164.679 237.597C164.839 237.801 165.01 237.997 165.19 238.185C165.622 238.696 166.183 239.081 166.815 239.302C168.304 239.749 170.51 238.537 171.865 237.932C171.936 237.905 172.004 237.874 172.07 237.838C172.038 237.866 172.009 237.897 171.982 237.932C172.117 237.873 172.252 237.808 172.381 237.738L172.54 237.661L172.815 237.508C172.855 237.492 172.893 237.47 172.927 237.444H172.81C173.92 236.813 174.913 235.993 175.743 235.021C176.79 233.773 177.664 232.388 178.341 230.906C178.675 230.338 178.914 229.721 179.051 229.077C179.117 228.656 179.054 228.226 178.869 227.842C178.822 227.766 178.769 227.683 178.717 227.613L178.64 227.525L178.523 227.407L178.406 227.301C178.148 227.078 177.848 226.878 177.543 226.619C176.059 225.379 174.282 222.827 172.211 222.139C172.798 224.32 170.85 226.096 169.096 227.619C166.615 229.765 164.239 230.341 161.166 229.971" fill="#F1DFEC"/>
<path d="M166.773 229.171C167.619 228.748 168.408 228.218 169.12 227.595C170.88 226.072 172.792 224.297 172.235 222.115C174.305 222.803 176.083 225.355 177.567 226.596C177.872 226.854 178.153 227.054 178.429 227.278L178.547 227.384L178.664 227.501L178.74 227.589L178.898 227.819C179.083 228.202 179.147 228.633 179.08 229.053C178.944 229.697 178.704 230.315 178.371 230.882C177.693 232.365 176.819 233.749 175.772 234.998C175.133 235.744 174.397 236.4 173.584 236.95C171.039 234.607 168.761 231.988 166.791 229.142" fill="#FBF4F8"/>
<path d="M136.206 247.051C136.863 247.369 137.578 247.521 138.247 247.804C139.205 248.227 140.035 248.896 140.652 249.744C140.5 248.345 140.376 246.945 140.265 245.534C140.177 244.423 141.913 244.446 142.025 245.534C142.21 248.383 142.566 251.218 143.092 254.024C143.107 254.11 143.107 254.197 143.092 254.283C143.661 255.816 144.376 257.291 145.228 258.687C146.395 260.393 147.916 261.827 149.686 262.891C153.205 265.043 157.312 265.96 161.377 266.483C159.945 258.681 159.148 250.796 158.444 242.888C157.593 233.046 157.4 222.603 160.89 213.172C161.987 210.233 165.641 203.242 168.944 208.181C169.572 209.116 168.052 209.945 167.43 209.039C167.055 208.481 166.662 208.269 166.257 208.316C166.983 209.585 167.641 210.893 168.228 212.232C170.434 210.844 169.466 207.616 168.322 205.694C167.259 204.032 166.052 202.468 164.715 201.019C163.098 199.264 161.669 197.345 160.45 195.292C159.96 194.375 159.525 193.428 159.148 192.458C158.86 191.759 158.655 190.771 158.15 190.165C158.063 190.129 157.98 190.081 157.904 190.024C157.505 189.701 154.971 193.164 154.842 193.364C154.171 194.438 153.566 195.551 153.029 196.698L152.959 196.845C152.836 197.109 152.707 197.374 152.589 197.638C151.264 200.478 150.126 203.418 149.07 206.376C147.31 211.409 145.515 216.612 144.588 221.868C144.389 222.968 142.723 222.456 142.916 221.386C143.368 218.817 147.023 205.835 151.158 196.933C150.572 196.968 150.044 197.556 149.709 198.109L149.645 198.221C145.245 204.776 142.019 212.149 139.373 219.575C136.857 226.672 134.622 234.233 134.399 241.806V241.865C134.282 243.782 134.199 246.051 136.159 247.022" fill="#FFEFB2"/>
<g opacity="0.53">
<g opacity="0.53">
<path opacity="0.53" d="M162.532 244.593C163.074 246.284 163.399 248.036 163.5 249.809C163.559 251.819 162.356 253.26 161.347 254.783C161.195 253.462 161.054 252.135 160.925 250.802C160.831 249.909 160.749 249.009 160.661 248.115C161.423 247.018 162.051 245.834 162.532 244.587" fill="#FFFDF9"/>
</g>
</g>
<g opacity="0.53">
<g opacity="0.53">
<path opacity="0.53" d="M143.028 221.016C142.993 221.169 142.963 221.304 142.946 221.422C142.752 222.515 144.418 223.003 144.617 221.904C144.682 221.522 144.764 221.139 144.84 220.728C144.981 220.728 145.116 220.681 145.257 220.646C147.455 220.095 149.475 218.988 151.123 217.429C154.021 214.878 157.458 211.944 161.166 212.573C161.078 212.784 161.001 212.984 160.931 213.161C160.354 214.736 159.868 216.344 159.476 217.976C159.037 218.243 158.695 218.645 158.502 219.123C156.784 223.574 152.683 226.925 148.342 228.695C146.254 229.547 144.588 229.988 142.476 229.177C140.631 228.376 138.591 228.135 136.61 228.483C137.273 226.031 138.048 223.609 138.863 221.228C140.259 221.139 141.667 221.11 143.063 220.981" fill="#FFFDF9"/>
</g>
</g>
<g opacity="0.53">
<g opacity="0.53">
<path opacity="0.53" d="M147.815 204.088C147.093 204.394 146.407 204.676 145.72 204.917C146.919 202.626 148.239 200.401 149.674 198.25C149.674 198.215 149.721 198.174 149.739 198.132C149.877 197.84 150.079 197.583 150.33 197.38C150.581 197.176 150.874 197.031 151.188 196.956C150.179 199.132 149.205 201.548 148.29 204.012C148.127 203.998 147.963 204.026 147.815 204.094" fill="#FFFDF9"/>
</g>
</g>
<g opacity="0.53">
<g opacity="0.53">
<path opacity="0.53" d="M143.298 209.903C144.371 209.998 145.45 209.806 146.424 209.345C145.838 211.173 145.251 212.937 144.788 214.531C143.597 214.958 142.339 215.169 141.074 215.154C141.77 213.39 142.512 211.64 143.298 209.903Z" fill="#FFFDF9"/>
</g>
</g>
<g opacity="0.53">
<g opacity="0.53">
<path opacity="0.53" d="M152.601 197.674C152.718 197.409 152.847 197.145 152.971 196.88L153.041 196.733C153.578 195.586 154.183 194.473 154.854 193.399C154.901 193.323 155.317 192.752 155.827 192.1C157.329 192.217 158.913 192.794 159.758 193.923C159.969 194.393 160.198 194.852 160.444 195.304C160.777 195.898 161.139 196.475 161.529 197.033C158.387 196.717 155.216 197.158 152.278 198.32C152.378 198.097 152.472 197.88 152.578 197.662" fill="#FFFDF9"/>
</g>
</g>
<g opacity="0.53">
<g opacity="0.53">
<path opacity="0.53" d="M149.099 206.411C149.304 205.823 149.516 205.235 149.733 204.647C149.896 204.631 150.054 204.581 150.196 204.5C153.029 202.836 155.27 200.972 158.725 201.008C161.119 201.037 164.005 201.349 166.122 202.666C166.943 203.617 167.685 204.633 168.34 205.705C168.906 206.629 169.303 207.646 169.513 208.71C169.384 208.725 169.254 208.725 169.126 208.71C169.141 208.524 169.091 208.339 168.985 208.187C167.524 206.005 165.999 206.146 164.656 207.24C159.963 205.294 154.813 206.905 150.706 209.903C149.375 210.879 148.166 212.255 146.811 213.278C147.539 210.956 148.331 208.657 149.123 206.393" fill="#FFFDF9"/>
</g>
</g>
<g opacity="0.53">
<g opacity="0.53">
<path opacity="0.53" d="M134.428 241.836C134.502 239.62 134.726 237.412 135.097 235.227C135.371 235.202 135.64 235.136 135.895 235.033C137.496 234.445 138.288 234.122 139.931 234.71C141.132 235.232 142.396 235.595 143.691 235.791C146.506 236.033 149.381 234.921 151.903 233.739C154.097 232.707 156.148 231.393 158.004 229.83C157.922 232.558 158.004 235.286 158.133 237.996C155.546 241.601 151.029 244.223 146.952 245.434C146.136 245.766 145.256 245.911 144.377 245.857C143.53 245.653 142.694 245.405 141.872 245.117C141.727 244.917 141.512 244.781 141.27 244.735C141.028 244.689 140.778 244.737 140.57 244.87L140.253 244.84C138.259 244.787 136.528 245.493 134.739 245.428C134.394 244.286 134.294 243.084 134.446 241.9L134.428 241.836Z" fill="#FFFDF9"/>
</g>
</g>
<g opacity="0.53">
<g opacity="0.53">
<path opacity="0.53" d="M142.647 251.596C143.118 251.762 143.609 251.868 144.107 251.913C145.668 251.963 147.226 251.732 148.706 251.231C152.355 250.128 155.759 248.332 158.731 245.94C158.919 247.956 159.107 249.973 159.318 251.99C158 253.652 156.456 255.121 154.731 256.353C152.191 258.021 149.474 259.401 146.63 260.468C146.107 259.924 145.634 259.333 145.216 258.704C144.364 257.309 143.649 255.834 143.081 254.301C143.095 254.215 143.095 254.128 143.081 254.042C142.916 253.227 142.776 252.409 142.658 251.59" fill="#FFFDF9"/>
</g>
</g>
<g opacity="0.53">
<g opacity="0.53">
<path opacity="0.53" d="M158.508 261.056C159.095 260.609 159.681 260.133 160.268 259.639C160.591 261.927 160.949 264.214 161.365 266.489C158.414 266.172 155.515 265.483 152.736 264.437C154.769 263.509 156.707 262.383 158.52 261.074" fill="#FFFDF9"/>
</g>
</g>
<path d="M178.717 227.589L178.875 227.818C178.867 227.799 178.858 227.782 178.846 227.765C178.834 227.74 178.818 227.716 178.799 227.695L178.717 227.589Z" fill="white"/>
<path d="M172.81 237.45H172.927L173.062 237.367C173.161 237.314 173.257 237.255 173.349 237.191L173.584 237.032C173.673 236.979 173.757 236.918 173.836 236.85L174.036 236.703C174.036 236.703 174.036 236.703 174.071 236.703L174.329 236.497L174.558 236.309L174.769 236.115L174.939 235.962C175.068 235.844 175.191 235.721 175.309 235.592C175.455 235.445 175.59 235.292 175.725 235.133C176.772 233.884 177.646 232.5 178.324 231.017C178.657 230.45 178.897 229.833 179.033 229.189C179.048 229.024 179.048 228.859 179.033 228.695C179.037 228.634 179.037 228.573 179.033 228.512C179.028 228.456 179.016 228.401 178.998 228.348C178.984 228.286 178.967 228.225 178.945 228.166V228.119C178.938 228.096 178.928 228.074 178.916 228.054L178.846 227.925C179.031 228.308 179.094 228.739 179.028 229.159C178.891 229.803 178.651 230.421 178.318 230.988C177.64 232.471 176.766 233.855 175.719 235.104C174.889 236.076 173.897 236.895 172.786 237.526" fill="white"/>
<path d="M165.19 238.237C165.409 238.483 165.655 238.704 165.923 238.896C165.974 238.935 166.029 238.968 166.087 238.996C166.242 239.1 166.407 239.189 166.58 239.26L166.826 239.349C168.322 239.79 170.528 238.584 171.877 237.979L171.953 237.943L172.041 237.849C171.975 237.886 171.906 237.917 171.836 237.943C170.481 238.531 168.275 239.76 166.785 239.313C166.167 239.103 165.615 238.734 165.184 238.243" fill="white"/>
<path d="M161.488 232.716C161.545 232.755 161.596 232.8 161.641 232.851L161.787 233.021C161.735 232.945 161.67 232.875 161.611 232.804C161.573 232.763 161.529 232.725 161.482 232.693" fill="white"/>
<g opacity="0.49">
<g opacity="0.49">
<g opacity="0.54">
<g opacity="0.54">
<path opacity="0.54" d="M160.608 261.979C160.843 263.49 161.089 265.002 161.365 266.507C159.525 266.282 157.701 265.941 155.904 265.484C157.592 264.483 159.166 263.3 160.597 261.956" fill="white"/>
</g>
</g>
<g opacity="0.54">
<g opacity="0.54">
<path opacity="0.54" d="M151.41 257.27C154.384 255.894 156.731 253.666 159.288 251.684C159.588 254.501 159.928 257.305 160.327 260.104C158.431 262.027 156.238 263.632 153.833 264.855C152.381 264.359 150.987 263.708 149.674 262.914C148.123 261.976 146.759 260.758 145.65 259.322C147.626 258.807 149.553 258.121 151.41 257.27Z" fill="white"/>
</g>
</g>
<g opacity="0.54">
<g opacity="0.54">
<path opacity="0.54" d="M154.86 193.387C155.5 192.488 156.187 191.622 156.919 190.795C157.665 190.92 158.358 191.261 158.913 191.776C158.995 192.029 159.077 192.27 159.165 192.482C159.493 193.322 159.863 194.144 160.274 194.946C158.18 194.516 155.839 194.887 153.681 195.451C154.044 194.746 154.431 194.052 154.854 193.387" fill="white"/>
</g>
</g>
<g opacity="0.54">
<g opacity="0.54">
<path opacity="0.54" d="M167.448 209.063C167.548 209.208 167.688 209.321 167.851 209.389C168.014 209.457 168.193 209.477 168.366 209.446C168.54 209.415 168.701 209.334 168.83 209.214C168.96 209.094 169.052 208.94 169.096 208.769C169.222 208.71 169.342 208.639 169.454 208.557C169.736 209.997 169.536 211.444 168.246 212.255C167.658 210.916 167 209.609 166.275 208.339C166.68 208.292 167.073 208.504 167.448 209.063Z" fill="white"/>
</g>
</g>
<g opacity="0.54">
<g opacity="0.54">
<path opacity="0.54" d="M149.099 206.411C150.125 203.441 151.3 200.525 152.619 197.674C152.672 197.544 152.736 197.421 152.795 197.297C155.558 196.451 159.036 195.622 161.523 196.986C162.523 198.397 163.601 199.751 164.75 201.043C166.087 202.491 167.294 204.056 168.357 205.717C168.48 205.923 168.604 206.146 168.715 206.382C168.715 206.481 168.715 206.587 168.715 206.687C168.715 207.099 168.645 207.363 168.357 207.41C168.121 207.122 167.823 206.89 167.487 206.73C167.15 206.57 166.782 206.488 166.41 206.487C165.002 203.994 159.957 204.623 157.681 205.017C154.836 205.611 152.133 206.751 149.721 208.375C149.164 208.727 148.618 209.086 148.073 209.445C148.417 208.426 148.767 207.414 149.123 206.411" fill="white"/>
</g>
</g>
<g opacity="0.54">
<g opacity="0.54">
<path opacity="0.54" d="M149.562 198.415C149.927 198.371 150.288 198.298 150.642 198.197C148.882 202.148 147.257 206.711 145.949 210.785C144.787 211.503 143.523 212.04 142.201 212.379C144.216 207.504 146.683 202.828 149.568 198.415" fill="white"/>
</g>
</g>
<g opacity="0.54">
<g opacity="0.54">
<path opacity="0.54" d="M139.403 219.605C140.065 217.753 140.758 215.901 141.497 214.066H141.591C142.875 213.835 144.121 213.426 145.292 212.849C144.019 216.965 143.151 220.257 142.946 221.428C142.74 222.598 144.418 223.009 144.617 221.91C145.266 218.473 146.154 215.086 147.275 211.773C149.187 210.632 151.023 209.298 153.023 208.245C155.311 207.025 157.848 206.351 160.438 206.276C161.418 206.276 164.11 206.04 164.943 207.028C163.107 208.287 161.559 211.444 160.907 213.196C160.643 213.919 160.403 214.648 160.174 215.383C160.076 215.388 159.979 215.413 159.891 215.458C159.803 215.502 159.726 215.565 159.664 215.642C156.813 218.97 154.261 222.862 150.413 225.143C147.814 226.684 144.817 227.495 141.907 226.449C140.148 225.82 138.834 226.096 137.215 226.284C137.889 224.026 138.634 221.792 139.408 219.605" fill="white"/>
</g>
</g>
<g opacity="0.54">
<g opacity="0.54">
<path opacity="0.54" d="M134.422 241.895V241.836C134.641 237.105 135.429 232.419 136.769 227.877C138.212 227.701 139.549 227.29 141.022 227.754C141.897 228.11 142.81 228.364 143.743 228.512C146.184 228.597 148.599 227.985 150.706 226.749C154.296 224.802 156.825 221.539 159.376 218.411C158.08 224.009 157.816 229.841 158.021 235.609C154.702 239.169 150.422 241.686 145.703 242.853C144.41 243.256 143.019 243.204 141.761 242.706C141.143 242.431 140.486 242.258 139.813 242.194C137.954 242.094 136.252 242.865 134.428 242.782C134.428 242.477 134.428 242.194 134.469 241.871" fill="white"/>
</g>
</g>
<g opacity="0.54">
<g opacity="0.54">
<path opacity="0.54" d="M140.781 244.005C141.456 244.342 142.166 244.602 142.899 244.781C143.984 244.824 145.069 244.683 146.107 244.364C150.617 243.251 154.752 240.96 158.092 237.726C158.186 239.478 158.309 241.216 158.461 242.941C158.661 245.293 158.876 247.631 159.107 249.956C159.042 249.981 158.981 250.015 158.925 250.056C156.402 251.961 154.12 254.242 151.27 255.671C149.193 256.69 147.012 257.478 144.764 258.022C144.13 256.837 143.567 255.613 143.081 254.359C143.095 254.274 143.095 254.186 143.081 254.101C142.555 251.295 142.198 248.46 142.013 245.61C141.925 244.499 140.189 244.476 140.253 245.61C140.365 247.022 140.488 248.421 140.64 249.82C140.023 248.972 139.194 248.303 138.235 247.88C137.567 247.598 136.851 247.445 136.194 247.127C135.687 246.867 135.257 246.477 134.948 245.997C134.639 245.517 134.462 244.964 134.434 244.393C136.581 244.34 138.74 243.347 140.775 244.052" fill="white"/>
</g>
</g>
</g>
</g>
<path d="M128.175 222.609C128.332 222.653 128.493 222.675 128.656 222.674C130.504 222.674 130.932 220.457 129.905 219.464C129.578 219.158 129.145 218.991 128.697 218.999C126.503 218.97 126.31 222.133 128.175 222.609Z" fill="white"/>
<path d="M128.439 207.087V207.199C128.41 209.551 132.093 209.615 132.117 207.24V207.128C132.117 204.776 128.468 204.718 128.439 207.087Z" fill="white"/>
<path d="M134.921 193.981V194.087C134.921 196.439 138.575 196.504 138.605 194.128V194.028C138.605 191.647 134.95 191.612 134.921 193.987" fill="white"/>
<path d="M105.579 152.03C105.658 152.175 105.773 152.296 105.913 152.383C107.761 153.5 108.917 155.252 110.295 156.863C110.389 156.958 110.503 157.03 110.629 157.074C110.754 157.118 110.888 157.133 111.02 157.117C111.152 157.102 111.279 157.057 111.391 156.985C111.504 156.914 111.598 156.818 111.668 156.704C113.733 153.729 114.267 150.237 114.085 146.709L112.384 147.832C110.659 148.967 108.929 150.09 107.157 151.142C106.635 151.454 106.113 151.76 105.579 152.059" fill="#F9FAEE"/>
<path d="M75.7152 228.06C76.8004 229.671 77.8152 229.718 79.5985 228.883C81.4233 227.977 83.0442 226.706 84.3617 225.149C85.7988 223.497 86.3972 221.669 85.0891 219.699C84.1839 218.459 83.1097 217.353 81.8979 216.412C81.7486 217.62 81.3541 218.785 80.7387 219.835C80.1233 220.884 79.3001 221.797 78.3197 222.515C77.5946 223.056 76.7689 223.446 75.8911 223.662C75.3045 223.785 73.8028 223.662 73.6034 224.156C73.2925 224.932 75.2635 227.413 75.6976 228.06" fill="#F1DFEC"/>
<path d="M54.269 203.836C55.1372 204.765 56.8676 205.235 57.9059 205.982C59.1597 206.996 60.3182 208.124 61.3669 209.351C62.6574 210.715 63.8951 212.514 65.608 213.355C65.7059 213.399 65.7937 213.463 65.8661 213.543C69.4913 215.695 72.8115 217.994 74.4774 222.033C75.2135 221.98 75.9373 221.815 76.6244 221.545C78.525 220.563 80.2261 218.123 80.144 215.865C79.4811 216.512 78.2317 215.683 78.7831 214.795C80.8127 211.55 79.8214 208.21 78.5367 204.953C77.475 202.283 77.4984 199.814 78.1085 197.051C78.2493 196.463 78.83 195.581 78.1671 195.575C77.7753 195.681 77.4071 195.86 77.0819 196.104C75.9733 196.765 75.0634 197.713 74.4481 198.85C72.8291 201.742 72.8349 205.282 72.5006 208.498C72.3891 209.604 70.6469 209.598 70.7408 208.498C70.7994 207.91 70.8522 207.322 70.905 206.764C70.7938 206.719 70.6922 206.653 70.6058 206.57C67.2915 203.418 60.7627 201.278 56.2458 202.266C55.6991 202.362 55.1756 202.562 54.7031 202.854C54.0226 203.306 53.7938 203.395 54.222 203.859" fill="#61793C"/>
<path d="M106.829 42.2629C106.829 44.6971 107.351 47.1137 109.363 48.6776C110.306 49.3662 111.415 49.7907 112.575 49.9075C113.736 50.0243 114.907 49.8291 115.968 49.342C118.508 48.0779 119.083 44.9617 118.467 42.4687C117.745 40.7401 115.71 39.135 114.302 37.9826C113.205 37.083 110.325 34.9134 108.893 35.6307C108.856 35.6486 108.817 35.6623 108.776 35.6719C106.899 37.23 106.834 40.0169 106.829 42.2806" fill="#EDF8FD"/>
<path d="M161.025 228.201C163.488 228.565 165.547 228.313 167.53 226.649C168.598 225.755 170.176 224.679 170.463 223.362C169.114 221.798 167.272 220.916 166.715 218.746C166.669 218.605 166.666 218.453 166.706 218.31C166.745 218.167 166.826 218.039 166.938 217.941C168.017 214.719 166.38 212.144 164.861 209.38C163.359 211.32 162.04 215.348 161.77 216.336C161.5 217.324 161.271 218.258 161.06 219.229C160.835 222.215 160.821 225.213 161.019 228.201" fill="#61793C"/>
<path d="M166.14 227.584C164.568 226.125 163.437 224.253 162.878 222.18C162.409 220.058 162.55 218.141 161.811 216.206C162.139 215.03 163.418 211.25 164.867 209.38C166.386 212.144 168.023 214.719 166.944 217.941C166.832 218.039 166.751 218.167 166.711 218.31C166.672 218.453 166.675 218.605 166.721 218.746C167.278 220.916 169.12 221.798 170.469 223.362C170.176 224.679 168.598 225.749 167.536 226.649C167.107 227.009 166.641 227.322 166.146 227.584" fill="#79994E"/>
<path d="M6.83638 105.246C8.29115 94.5565 11.711 84.1848 18.6623 75.7887C24.9683 68.1863 33.1631 62.5418 41.575 57.5265C46.3558 54.669 50.9606 51.5822 55.6534 48.6012C57.9007 47.2415 60.0562 45.735 62.106 44.0915C64.0594 42.457 65.96 40.7813 68.2771 39.6759C69.286 39.1938 68.4179 37.6827 67.4148 38.159C64.8689 39.376 62.7865 41.2693 60.6337 43.0626L60.4753 43.1861C61.3962 40.4226 61.5194 37.3652 61.4784 34.4901C61.4813 32.821 61.3755 31.1535 61.1616 29.4982C60.8566 27.2699 60.6982 24.6652 63.8834 25.2414C66.2298 25.6706 68.6115 27.0053 70.7584 27.9519C73.1048 29.0279 75.4512 30.2156 77.8387 31.268C81.224 32.8187 84.893 33.6495 88.6146 33.7081C87.9549 34.0155 87.2699 34.2654 86.5673 34.4548C86.4556 34.4857 86.3511 34.5383 86.2597 34.6097C86.1683 34.6811 86.0918 34.7698 86.0346 34.8708C85.9774 34.9718 85.9406 35.0831 85.9264 35.1984C85.9121 35.3136 85.9206 35.4306 85.9514 35.5425C85.9822 35.6545 86.0347 35.7592 86.1059 35.8509C86.1772 35.9425 86.2657 36.0191 86.3665 36.0765C86.4672 36.1338 86.5783 36.1707 86.6933 36.185C86.8083 36.1993 86.9249 36.1908 87.0366 36.1599C92.4627 34.6841 95.777 30.4919 98.6337 25.9058C100.012 23.7009 101.76 21.3196 104.5 20.914C107.433 20.4789 110.278 22.1957 112.566 23.8067C116.672 26.6936 120.004 30.633 124.239 33.3435C127.734 35.6509 131.408 37.6741 135.226 39.3937C136.253 39.8347 136.722 38.1531 135.707 37.718C133.155 36.605 130.68 35.3224 128.298 33.8786C142.406 34.9428 156.784 40.3462 167.747 49.2597C173.566 53.9634 178.429 59.9548 182.594 66.1637C184.612 69.1741 186.331 72.3079 188.044 75.4947C189.516 78.2287 191.757 81.2332 191.774 84.4553C191.768 84.6281 191.818 84.7982 191.916 84.9403C192.015 85.0823 192.156 85.1886 192.32 85.2432C192.392 85.3178 192.475 85.3812 192.566 85.4313C195.798 87.2219 198.586 89.7176 200.726 92.7338C202.879 95.6207 204.944 98.7134 206.129 102.141C206.134 102.171 206.146 102.199 206.164 102.224C207.959 110.332 206.404 119.033 204.046 126.848C201.905 133.968 198.227 140.371 194.004 146.421C189.406 152.995 183.974 158.941 177.843 164.107C171.744 169.232 165.064 173.617 157.939 177.171C154.16 179.079 150.268 180.752 146.283 182.181C144.082 183.011 141.84 183.729 139.567 184.333C137.744 184.705 135.956 185.233 134.223 185.909C134.104 185.958 133.997 186.035 133.912 186.132C133.771 186.228 133.657 186.358 133.581 186.51C133.505 186.663 133.47 186.832 133.478 187.002C132.457 190.254 130.662 193.241 128.949 196.257C128.275 192.6 127.682 188.86 126.016 185.521C125.985 185.46 125.948 185.403 125.905 185.35C125.839 185.162 125.708 185.003 125.535 184.903C123.669 183.751 122.307 181.934 121.722 179.817V179.706C122.139 175.202 122.561 168.669 118.549 165.465C117.22 164.463 115.612 163.902 113.95 163.86C115.061 163.327 116.173 162.8 117.288 162.278C123.74 159.297 130.246 156.44 137.097 154.529C138.171 154.223 137.731 152.536 136.657 152.841C129.536 154.829 122.772 157.827 116.079 160.926C113.897 161.937 111.715 163.031 109.509 164.101L109.41 164.148C104.951 166.312 100.417 168.399 95.6773 169.616C89.5238 171.192 82.772 171.38 76.4309 171.656C71.4837 171.895 66.527 171.858 61.5839 171.545C54.8263 171.08 47.9454 170.016 41.6395 167.429C37.4629 165.665 32.9636 162.725 30.6818 158.933C35.2103 160.45 40.1788 161.214 44.6605 161.925C49.2124 162.673 53.8108 163.101 58.4222 163.207C63.2558 163.284 68.0483 162.707 72.835 162.114C83.8983 160.726 94.5393 157.998 104.4 152.677C104.787 152.471 105.174 152.259 105.573 152.042C105.652 152.186 105.768 152.308 105.908 152.395C107.755 153.512 108.911 155.264 110.29 156.875C110.383 156.969 110.497 157.041 110.623 157.085C110.748 157.129 110.882 157.144 111.014 157.129C111.146 157.114 111.273 157.069 111.386 156.997C111.498 156.926 111.592 156.83 111.662 156.716C113.727 153.741 114.261 150.249 114.079 146.721C117.165 144.681 120.25 142.64 123.506 140.876C128.24 138.319 132.891 136.261 138.241 135.373C143.563 134.535 148.976 134.453 154.32 135.132C155.434 135.267 155.44 133.527 154.32 133.368C149.04 132.718 143.697 132.783 138.435 133.562C132.909 134.397 128.105 136.408 123.183 139.03C115.851 142.946 109.351 148.191 101.954 151.995C91.9817 157.122 81.1941 159.433 70.1366 160.697C60.8209 161.788 51.3943 161.469 42.1733 159.75C38.4356 159.089 34.7427 158.196 31.1159 157.075C28.1476 156.146 25.7895 154.723 23.0501 153.288C18.9908 151.107 15.3714 149.343 12.5733 145.48C9.92778 141.823 8.32635 137.519 7.29393 133.133C5.17043 124.031 5.5752 114.441 6.82466 105.24L6.83638 105.246ZM105.855 43.4212C106.043 46.2258 107.245 48.9069 109.861 50.2005C112.043 51.2823 115.323 51.2823 117.294 49.7066C119.511 47.9427 120.086 45.1322 119.517 42.5099C119.53 42.4459 119.53 42.3798 119.517 42.3159C119.487 42.2277 119.464 42.1336 119.429 42.0454C119.401 41.9629 119.357 41.8869 119.3 41.822C118.308 39.8288 116.156 38.0531 114.449 36.7949C113.035 35.7365 110.248 33.8551 108.412 34.7311C108.374 34.7478 108.339 34.7695 108.307 34.7958C108.243 34.82 108.184 34.8537 108.131 34.8958C105.784 36.8066 105.685 40.6284 105.878 43.4212H105.855ZM35.6503 97.7021C36.7355 99.9246 35.9201 103.205 37.5919 105.346C38.5833 106.633 40.4546 107.357 41.968 106.522C43.6222 105.628 43.8803 103.711 43.6163 102.03C43.5775 101.736 43.4622 101.458 43.282 101.224C42.6543 98.4489 40.6423 96.6967 38.202 95.2033C36.5712 94.2096 34.8701 96.0794 35.6503 97.6786V97.7021ZM14.0574 98.1784C14.3801 99.7718 15.7703 101.624 17.6299 100.895C17.9533 100.784 18.2453 100.597 18.4812 100.35C18.7171 100.102 18.8899 99.8008 18.9849 99.4719C19.1368 99.1926 19.2136 98.8786 19.2078 98.5606C19.2078 97.6727 19.0494 96.5497 19.3897 95.703C19.4483 95.5737 19.7885 95.1151 19.9352 94.8505C20.5746 93.7863 20.9794 92.4986 20.0584 91.4638C18.5098 89.6999 15.7938 91.1052 14.8142 92.7221C13.9141 94.39 13.6454 96.3276 14.0574 98.1784Z" fill="#61793C"/>
<path d="M27.6784 122.538C28.1418 108.838 29.9544 94.3743 38.0671 82.8795C45.3996 72.502 57.2255 65.076 68.4883 59.6608C78.3256 54.9218 89.3302 50.3475 95.5189 40.8048C98.2173 36.6479 99.2262 31.7266 101.385 27.3169C102.277 25.5177 103.397 23.6303 105.157 22.572C106.418 21.8507 107.891 21.5929 109.322 21.8429C110.456 22.4048 111.541 23.0617 112.566 23.8067C116.672 26.6936 120.004 30.633 124.239 33.3435C127.734 35.6509 131.408 37.6741 135.226 39.3937C136.253 39.8347 136.722 38.1531 135.707 37.718C133.155 36.605 130.68 35.3224 128.298 33.8786C142.406 34.9428 156.784 40.3462 167.747 49.2597C173.566 53.9634 178.429 59.9548 182.594 66.1637C184.612 69.1741 186.331 72.3079 188.044 75.5006C189.516 78.2287 191.757 81.2332 191.774 84.4553C191.768 84.6281 191.818 84.7982 191.916 84.9403C192.015 85.0823 192.156 85.1886 192.32 85.2432C192.392 85.3178 192.475 85.3812 192.566 85.4313C195.798 87.2219 198.586 89.7175 200.726 92.7338C202.879 95.6207 204.944 98.7134 206.123 102.141C206.133 102.17 206.147 102.198 206.164 102.224C207.959 110.332 206.404 119.033 204.046 126.853C202.672 131.274 200.788 135.518 198.432 139.501C196.681 142.28 194.771 144.955 192.713 147.514C183.914 158.451 174.065 167.105 161.494 173.303C154.52 176.721 147.231 179.454 139.731 181.464C137.613 182.01 134.944 182.845 132.756 183.504C131.583 183.845 131.384 185.926 130.744 186.826C125.758 181.781 122.778 173.25 121.253 169.598C120.786 167.988 119.848 166.554 118.561 165.483C117.232 164.481 115.624 163.919 113.962 163.878C115.072 163.344 116.185 162.817 117.299 162.296C123.752 159.315 130.257 156.457 137.109 154.547C138.182 154.241 137.743 152.553 136.669 152.859C129.548 154.846 122.784 157.845 116.091 160.944C113.909 161.955 111.727 163.049 109.521 164.119L109.421 164.166C104.963 166.329 100.429 168.417 95.689 169.634C89.5355 171.209 82.7838 171.398 76.4426 171.674C74.8392 171.745 73.2358 171.792 71.6324 171.815C67.0687 171.074 62.6809 169.328 60.311 165.571C60.2471 165.472 60.2101 165.359 60.2038 165.242C60.1974 165.124 60.2218 165.008 60.2747 164.903C60.3276 164.798 60.407 164.709 60.505 164.645C60.603 164.58 60.7161 164.543 60.8331 164.536C70.9236 163.945 80.8786 161.916 90.3979 158.509C90.4622 158.49 90.522 158.458 90.5738 158.415C94.8811 157.104 99.0658 155.418 103.08 153.376C103.141 153.428 103.208 153.471 103.28 153.506C103.428 153.58 103.581 153.645 103.737 153.7C105.245 155.099 108.43 158.133 110.712 157.11C110.892 157.139 111.077 157.117 111.246 157.045C111.414 156.973 111.558 156.855 111.662 156.704C113.733 153.729 114.267 150.237 114.085 146.709C117.17 144.669 120.256 142.629 123.512 140.865C128.245 138.307 132.897 136.249 138.247 135.361C143.569 134.523 148.982 134.442 154.326 135.12C155.44 135.255 155.446 133.515 154.326 133.356C149.046 132.706 143.703 132.772 138.441 133.55C132.915 134.385 128.111 136.402 123.189 139.018C115.856 142.934 109.357 148.179 101.96 151.983C91.9875 157.11 81.1999 159.421 70.1425 160.685C60.8267 161.776 51.4002 161.457 42.1792 159.738C40.2551 159.385 38.3369 158.986 36.4363 158.533C36.3265 158.227 36.1069 157.974 35.8204 157.822C30.365 154.799 28.4996 148.308 27.8133 142.499C27.039 135.92 27.4085 129.146 27.6373 122.544L27.6784 122.538ZM105.855 43.4212C106.043 46.2258 107.245 48.9069 109.861 50.2005C112.043 51.2823 115.323 51.2823 117.294 49.7066C119.511 47.9427 120.086 45.1322 119.517 42.5099C119.53 42.4459 119.53 42.3798 119.517 42.3159C119.487 42.2277 119.464 42.1395 119.429 42.0454C119.401 41.9629 119.357 41.8869 119.3 41.822C118.308 39.8288 116.156 38.0531 114.449 36.7949C113.029 35.7365 110.248 33.8551 108.412 34.7311C108.374 34.7478 108.339 34.7695 108.307 34.7958C108.243 34.82 108.184 34.8537 108.131 34.8958C105.784 36.8066 105.685 40.6284 105.878 43.4212H105.855ZM35.6503 97.7021C36.7355 99.9246 35.9201 103.205 37.5919 105.346C38.5833 106.633 40.4546 107.357 41.968 106.522C43.6222 105.628 43.8803 103.711 43.6163 102.03C43.5739 101.737 43.459 101.46 43.282 101.224C42.6543 98.4547 40.6423 96.6967 38.202 95.2033C36.5712 94.2096 34.8701 96.0793 35.6503 97.6786" fill="#79994E"/>
<g opacity="0.18">
<g opacity="0.18">
<path opacity="0.18" d="M134.422 241.895V241.836C134.645 234.263 136.88 226.702 139.397 219.605C142.031 212.179 145.263 204.806 149.668 198.25L149.733 198.138C150.067 197.591 150.583 197.003 151.182 196.962C147.075 205.864 143.391 218.846 142.94 221.416C142.746 222.509 144.412 222.997 144.612 221.898C145.538 216.641 147.333 211.438 149.093 206.405C150.119 203.435 151.294 200.519 152.613 197.668C152.73 197.403 152.859 197.139 152.982 196.874L153.053 196.727C153.589 195.58 154.195 194.467 154.865 193.393C155.514 192.479 156.213 191.601 156.96 190.765C155.697 192.444 154.689 194.3 153.968 196.274C152.877 198.962 151.943 201.71 151.17 204.506C149.104 212.353 147.68 220.357 146.911 228.436C145.973 239.607 145.738 252.09 146.952 261.527C146.747 261.732 145.222 259.345 145.14 259.175C144.303 257.534 143.612 255.822 143.075 254.06C142.549 251.254 142.192 248.418 142.007 245.569C141.919 244.458 140.183 244.435 140.247 245.569C140.359 246.98 140.482 248.38 140.634 249.779C140.017 248.931 139.188 248.262 138.229 247.839C137.561 247.557 136.845 247.404 136.188 247.086C134.205 246.116 134.287 243.852 134.428 241.93" fill="#294B9B"/>
</g>
</g>
<path d="M77.0291 225.273C78.789 225.273 78.789 228.03 77.0291 228.007C75.2693 227.983 75.2693 225.255 77.0291 225.273Z" fill="white"/>
<path d="M165.764 233.751C167.524 233.751 167.524 236.503 165.764 236.485C164.005 236.468 164.005 233.728 165.764 233.751Z" fill="white"/>
<g opacity="0.44">
<g opacity="0.44">
<path opacity="0.44" d="M105.779 235.774C105.879 236.08 106.045 236.361 106.265 236.597C106.308 236.661 106.364 236.715 106.43 236.756H106.459C106.557 236.827 106.666 236.883 106.782 236.92H106.817C106.914 236.94 107.013 236.94 107.11 236.92C107.197 236.932 107.285 236.925 107.368 236.898C107.451 236.872 107.527 236.827 107.591 236.768C107.781 236.706 107.952 236.594 108.084 236.444C108.256 236.316 108.397 236.152 108.499 235.963C108.6 235.774 108.659 235.565 108.671 235.351C108.712 234.974 108.753 234.616 108.77 234.257C108.723 234.251 108.676 234.251 108.629 234.257C108.583 234.257 108.553 234.257 108.5 234.257C108.475 234.281 108.443 234.298 108.409 234.304C108.374 234.31 108.339 234.306 108.307 234.292C108.137 234.251 108.043 233.898 108.16 233.857C108.049 233.645 108.16 233.481 108.295 233.64C108.351 233.696 108.401 233.759 108.442 233.828H108.512C108.583 233.828 108.688 233.886 108.729 233.828H108.782C108.786 233.569 108.776 233.31 108.753 233.052C108.684 232.64 108.657 232.222 108.671 231.805C108.723 231.382 108.735 231.017 108.964 230.8C109.193 230.582 109.65 230.835 110.026 230.953C110.123 231.002 110.209 231.072 110.278 231.158C110.55 231.421 110.853 231.648 111.181 231.834C111.557 232.111 112.055 232.334 112.249 232.899C112.258 232.918 112.262 232.939 112.262 232.96C112.262 232.982 112.258 233.003 112.249 233.022C112.284 233.078 112.297 233.145 112.284 233.21V233.251C112.299 233.295 112.299 233.343 112.284 233.387C112.285 233.413 112.279 233.438 112.267 233.461C112.255 233.484 112.236 233.503 112.214 233.516H112.126C112.041 233.541 111.952 233.541 111.867 233.516V233.61V233.745C111.867 233.804 111.867 233.839 111.797 233.822L111.686 233.722L111.604 233.575L111.545 233.487V233.446H111.457V233.41L111.31 233.363C111.313 233.408 111.304 233.452 111.285 233.493C111.265 233.533 111.236 233.567 111.199 233.593C111.164 233.593 111.081 233.592 111.035 233.493L110.952 233.351H110.923V233.299H110.888H110.771C110.701 233.282 110.632 233.26 110.565 233.234V233.322C110.604 233.78 110.721 234.227 110.911 234.645C110.954 234.714 111.017 234.769 111.091 234.802C111.165 234.836 111.248 234.847 111.328 234.833C111.433 234.774 111.562 234.833 111.709 235.039C111.856 235.245 111.815 235.268 111.768 235.298L111.703 235.327V235.368C111.744 235.413 111.775 235.466 111.792 235.524C111.81 235.582 111.813 235.644 111.803 235.703C111.803 235.713 111.8 235.722 111.796 235.731C111.791 235.739 111.784 235.747 111.776 235.752C111.768 235.757 111.759 235.76 111.749 235.761C111.739 235.762 111.73 235.76 111.721 235.756C111.622 235.707 111.54 235.629 111.486 235.533C111.387 235.388 111.243 235.28 111.076 235.227L111.14 235.386C111.296 235.831 111.402 236.293 111.457 236.762V236.891C111.618 237.103 111.732 237.347 111.794 237.606C111.856 237.865 111.863 238.134 111.815 238.396C111.784 238.69 111.729 238.981 111.65 239.266C111.551 239.566 111.234 239.513 111.193 239.895C111.293 240.06 111.44 240.191 111.615 240.272C111.731 240.306 111.841 240.355 111.944 240.419C112.049 240.52 112.147 240.628 112.237 240.742C112.425 240.954 112.395 241.271 112.208 241.066C112.137 240.989 112.079 240.919 112.014 240.836L111.979 240.807H111.909C111.826 240.772 111.809 240.725 111.844 240.866C111.879 241.007 111.809 241.095 111.691 240.966C111.633 240.896 111.58 240.821 111.533 240.742C111.437 240.59 111.296 240.472 111.128 240.407C110.905 240.307 110.835 240.031 110.659 239.772C110.548 239.607 110.395 239.331 110.454 239.184C110.512 239.037 110.571 239.149 110.595 239.061C110.603 238.994 110.603 238.927 110.595 238.861C110.53 238.861 110.489 238.925 110.454 238.961C110.391 239.022 110.318 239.07 110.237 239.102C110.163 239.13 110.092 239.165 110.026 239.208C109.984 239.208 109.603 239.208 109.961 239.543C110.134 239.665 110.29 239.809 110.424 239.972C110.525 240.155 110.593 240.354 110.624 240.56C110.688 240.824 110.454 240.736 110.372 240.483C110.336 240.483 110.307 240.483 110.248 240.419L110.207 240.378C110.199 240.418 110.199 240.46 110.207 240.501C110.272 240.76 110.072 240.689 109.973 240.454C109.926 240.348 109.803 240.319 109.779 240.342C109.756 240.366 109.638 240.307 109.586 240.195C109.516 240.048 109.423 239.913 109.31 239.796C109.225 239.697 109.162 239.58 109.128 239.455C109.116 239.417 109.113 239.377 109.119 239.339C109.125 239.3 109.14 239.263 109.163 239.231C109.216 239.184 109.216 239.125 109.204 239.037L109.105 238.984C108.442 238.984 107.626 238.455 106.893 237.99C106.571 237.745 106.312 237.426 106.138 237.06C105.963 236.694 105.878 236.291 105.89 235.886L105.779 235.774ZM110.366 231.94C110.442 231.94 110.489 231.94 110.512 231.899C110.501 231.909 110.486 231.914 110.471 231.914C110.456 231.914 110.442 231.909 110.43 231.899C110.237 231.834 110.125 231.452 110.313 231.505C110.368 231.533 110.416 231.573 110.452 231.624C110.487 231.674 110.51 231.732 110.518 231.793C110.511 231.69 110.476 231.59 110.417 231.504C110.358 231.418 110.278 231.35 110.184 231.305C109.879 231.205 110.061 231.829 110.366 231.923" fill="#E3EBF8"/>
</g>
</g>
<path d="M123.101 19.0736C117.317 16.3455 111.07 11.8652 109.662 5.22118C109.427 4.12169 111.111 3.67483 111.34 4.77433C112.659 10.9832 118.613 15.0402 123.993 17.5802C125.002 18.0564 124.104 19.5499 123.101 19.0736Z" fill="#211F1F"/>
<path d="M7.18845 138.848C3.95038 130.128 3.72159 120.586 4.44897 111.413C5.26434 101.036 7.34091 90.429 12.6614 81.3508C18.3632 71.6083 27.3265 64.4057 36.7532 58.4731C42.0326 55.1453 47.3472 51.9526 52.5914 48.56C54.2515 47.4841 55.9468 46.4728 57.5834 45.3792C57.6033 45.3285 57.6268 45.2794 57.6538 45.2322C60.1644 41.3457 59.9415 36.1834 59.7128 31.709C59.572 29.0749 58.1466 25.0767 61.3787 23.7244C63.0916 23.0012 65.0509 23.6362 66.6875 24.2771C69.1101 25.2237 71.4741 26.3232 73.8205 27.4286C79.4812 30.098 84.966 32.6497 91.3834 31.8266C91.4787 31.8118 91.5756 31.8118 91.6708 31.8266C92.6309 31.0495 93.5059 30.1724 94.2812 29.2101C96.1466 26.9347 97.355 24.1772 99.3377 22.0017C102.74 18.2681 107.386 18.6033 111.516 20.9904C116.302 23.7538 119.787 28.1283 124.286 31.221C124.708 31.5091 125.131 31.8089 125.559 32.0735C125.707 31.9787 125.882 31.9334 126.057 31.9442C138.206 32.4557 151.088 36.2422 161.418 42.6628C171.748 49.0833 179.755 57.9498 186.055 68.2745C187.721 70.9791 189.141 73.819 190.672 76.5942C191.921 78.8402 193.323 81.2979 193.505 83.9026C196.786 85.7269 199.633 88.2448 201.846 91.2816C204.076 94.2214 206.17 97.3376 207.501 100.801C209.492 101.725 211.227 103.121 212.558 104.869C213.144 105.598 213.379 106.539 214.007 107.221C214.828 108.115 216.206 108.603 217.251 109.156C217.343 109.208 217.427 109.275 217.497 109.356C217.643 109.456 217.754 109.6 217.814 109.767C218.154 110.678 218.407 111.619 218.57 112.578C223.533 115.088 228.091 118.457 232.373 121.985C238.843 127.336 244.741 133.345 249.971 139.918C256.27 147.777 261.541 156.409 265.657 165.606C270.397 176.272 272.99 187.508 275.095 198.944C276.726 207.763 277.864 216.612 277.894 225.579C277.894 225.812 277.801 226.037 277.636 226.202C277.471 226.368 277.247 226.461 277.014 226.461C276.78 226.461 276.556 226.368 276.391 226.202C276.226 226.037 276.134 225.812 276.134 225.579C276.063 218.087 275.374 210.614 274.075 203.236C272.18 192.065 269.927 180.793 265.71 170.222C258.788 152.877 247.39 137.296 233.318 125.101C228.866 121.119 223.989 117.643 218.776 114.735C218.851 116.519 218.77 118.305 218.535 120.074C218.107 123.708 217.544 127.353 216.822 130.934C215.341 138.425 212.96 145.708 209.73 152.624C203.718 165.418 194.514 176.73 183.691 185.762C177.849 190.657 171.457 194.852 164.644 198.262C165.817 199.69 167.108 201.049 168.258 202.507C170.569 205.417 173.49 211.767 168.774 213.937C169.176 215.505 169.08 217.16 168.498 218.67C168.793 219.356 169.247 219.961 169.824 220.434C169.917 220.364 170.026 220.318 170.141 220.299C173.789 219.575 176.271 223.238 178.699 225.302C179.966 226.39 181.046 227.207 180.829 229.024C180.76 229.602 180.62 230.168 180.412 230.711C181.077 231.148 181.7 231.646 182.272 232.199C182.982 231.409 183.781 230.705 184.653 230.1C185.786 229.19 186.986 228.369 188.243 227.642C188.443 227.528 188.68 227.497 188.902 227.558C189.125 227.619 189.314 227.765 189.428 227.966C189.542 228.166 189.573 228.404 189.512 228.627C189.452 228.849 189.305 229.039 189.105 229.153C187.974 229.804 186.892 230.537 185.867 231.346C184.955 231.955 184.143 232.703 183.462 233.563C184.186 234.527 184.676 235.646 184.894 236.832C185.087 237.932 183.404 238.379 183.216 237.273C182.835 235.074 181.456 233.516 179.696 232.317C179.237 233.155 178.732 233.968 178.183 234.751C177.189 236.177 175.959 237.422 174.546 238.431C172.997 239.582 171.231 240.406 169.355 240.854C171.66 243.847 174.288 246.833 177.567 248.697C179.368 249.715 180.629 250.108 182.618 249.444C183.908 249.009 185.163 248.497 186.46 248.08C189.235 247.192 192.033 246.363 194.737 245.269C197.441 244.176 200.791 242.735 202.445 240.101C203.031 239.155 204.533 240.042 203.935 240.995C202.175 243.77 199.031 245.334 196.115 246.575C192.871 247.945 189.498 248.927 186.143 250.003C184.571 250.526 183.017 251.349 181.368 251.561C179.72 251.772 178.353 251.126 176.975 250.385C173.027 248.239 170 244.652 167.325 241.107C164.808 241.019 163.459 238.755 162.157 236.644C162.456 238.079 162.808 239.496 163.219 240.907C164.063 243.817 165.131 246.786 165.266 249.861C165.328 250.85 165.157 251.839 164.767 252.748C164.664 252.996 164.547 253.238 164.415 253.472C163.641 254.906 161.893 256.488 161.811 258.175C161.806 258.239 161.794 258.302 161.776 258.363C161.776 258.363 161.776 258.399 161.776 258.416C162.169 261.356 162.679 264.325 163.242 267.265C163.277 267.425 163.265 267.591 163.209 267.744C163.153 267.897 163.055 268.031 162.925 268.13C162.848 268.216 162.749 268.281 162.639 268.318C162.529 268.355 162.412 268.363 162.298 268.341C157.881 267.836 153.393 266.971 149.475 264.784C145.263 262.432 143.298 259.046 141.421 254.789C140.247 252.178 139.291 250.032 136.564 249.05C133.208 247.839 132.457 245.299 132.68 241.877C132.897 234.116 135.15 226.384 137.725 219.123C139.838 212.962 142.506 207.007 145.697 201.331C145.239 200.661 144.799 199.984 144.377 199.302C140.646 204.247 137.49 209.721 134.405 215.072C130.885 221.139 127.09 227.478 125.019 234.204C124.966 234.383 124.855 234.538 124.702 234.645C124.55 234.752 124.366 234.804 124.18 234.792C124.092 234.826 123.998 234.842 123.904 234.839C123.809 234.837 123.716 234.816 123.63 234.777C123.544 234.738 123.466 234.682 123.402 234.613C123.337 234.544 123.287 234.463 123.254 234.374C120.848 229.083 120.027 222.892 119.147 217.188C118.637 213.819 118.267 210.433 117.693 207.075C117.165 204.327 116.804 201.548 116.613 198.756C116.176 198.973 115.71 199.125 115.229 199.208C115.116 199.285 114.986 199.334 114.85 199.351C114.715 199.367 114.577 199.352 114.449 199.304C114.32 199.257 114.205 199.18 114.112 199.08C114.019 198.979 113.952 198.858 113.915 198.726C112.53 193.699 112.783 188.496 113.915 183.398C110.524 189.466 108.049 196.157 105.843 202.677C102.749 211.664 100.867 221.025 100.247 230.512C100.177 231.629 98.4402 231.617 98.4872 230.512C98.6103 228.53 98.8274 226.566 99.0738 224.603C98.317 225.52 98.1294 226.878 97.6366 228.013C97.05 229.347 96.0528 230.141 94.9206 230.953C95.391 231.787 95.7593 232.675 96.0176 233.598C96.0639 233.817 96.0245 234.045 95.9073 234.236C95.7902 234.426 95.6044 234.564 95.3885 234.621C95.1727 234.678 94.9433 234.649 94.7481 234.541C94.5528 234.432 94.4066 234.253 94.3399 234.039C93.7885 231.946 92.4041 230.018 91.1077 228.318C89.9827 226.743 88.6508 225.327 87.1482 224.109C87.0182 224.401 86.8672 224.684 86.6965 224.955C85.359 227.101 82.4905 229.906 79.5927 230.87H79.5282C80.9185 233.845 82.4319 236.75 84.1096 239.572C85.9691 242.688 88.1278 246.581 92.2692 246.51C94.1463 246.51 96.5631 246.187 97.9475 244.823C98.0178 244.762 98.097 244.712 98.1821 244.676C98.6925 244.152 99.7659 244.329 99.6604 245.217C99.6604 245.246 99.6604 245.275 99.6604 245.305C99.6635 245.356 99.6635 245.407 99.6604 245.458C99.6076 245.899 99.5783 246.363 99.5431 246.822C99.5431 247.127 99.4961 247.439 99.4785 247.745C99.3749 250.43 99.4454 253.118 99.6897 255.794C99.6897 255.912 99.6897 256.035 99.719 256.153C99.7484 256.47 99.7777 256.782 99.8129 257.099C99.9361 258.275 100.083 259.416 100.241 260.568C100.25 260.643 100.25 260.718 100.241 260.792C100.3 261.28 100.364 261.774 100.429 262.238C100.581 263.338 98.8978 263.79 98.7453 262.679C98.5165 260.998 98.2877 259.151 98.1 257.282L98.0472 256.729C98.0061 256.311 97.9768 255.9 97.9416 255.477C97.7012 252.952 97.6365 250.414 97.7481 247.88C97.7481 247.598 97.748 247.327 97.795 247.051C96.0944 247.887 94.2149 248.291 92.322 248.227H92.1695H92.1225C88.6029 248.227 85.9397 245.746 84.1154 242.9C81.727 239.144 79.6042 235.224 77.7625 231.17C77.4441 231.182 77.1254 231.158 76.8122 231.1C75.2753 230.817 74.5362 229.336 73.7678 228.13C73.0638 227.007 71.5856 225.19 71.8437 223.738C71.8865 223.456 71.9984 223.19 72.1694 222.962C72.3403 222.734 72.565 222.552 72.8233 222.433C71.2278 218.652 67.8665 216.653 64.4467 214.654L64.3293 214.572C62.5109 213.502 61.1617 211.567 59.7421 210.068C58.2381 208.426 56.4814 207.037 54.5389 205.952C53.6532 205.458 52.0576 204.718 52.1573 203.453C52.2395 202.319 53.6532 201.36 54.5741 200.955C57.3488 199.72 60.839 200.367 63.6665 201.096C66.3979 201.714 68.9635 202.917 71.1867 204.623C71.4917 201.795 72.0549 198.973 73.8088 196.704C74.8061 195.41 77.7449 192.729 79.534 193.993C80.4609 194.652 80.2321 195.828 80.0268 196.78C79.405 199.62 79.2349 201.931 80.3612 204.676C81.5344 207.557 82.2207 210.638 81.3056 213.549C81.3902 213.589 81.4691 213.641 81.5403 213.702C84.0333 216.012 87.7758 218.752 87.6174 222.215C87.6464 222.223 87.674 222.235 87.6996 222.251C89.6283 223.736 91.306 225.523 92.6681 227.542C93.1256 228.16 93.5773 228.801 94.0173 229.459C95.4251 228.413 95.9707 227.425 96.5397 225.755C96.7422 225.014 97.0973 224.324 97.5823 223.73C98.0673 223.135 98.6714 222.65 99.3553 222.304C100.331 215.472 101.937 208.746 104.154 202.213C106.899 194.099 110.02 185.662 114.824 178.518C114.939 178.343 115.114 178.217 115.317 178.165C116.385 174.941 117.62 171.776 119.018 168.681C118.592 167.889 117.99 167.205 117.258 166.682C115.199 165.218 112.425 165.506 110.043 165.771C106.526 167.518 102.91 169.059 99.2146 170.386C93.1198 172.497 86.4501 172.815 80.0561 173.226C74.5896 173.609 69.1057 173.678 63.6313 173.432C52.8965 172.903 39.692 171.186 31.7318 163.06C30.2942 161.615 29.1401 159.911 28.3296 158.039C27.2467 157.594 26.1944 157.077 25.1795 156.493C21.4194 154.323 17.0668 152.694 13.8874 149.655C10.708 146.615 8.66669 142.846 7.19431 138.86L7.18845 138.848ZM78.5603 204.953C77.4986 202.283 77.522 199.814 78.1321 197.051C78.2729 196.463 78.8536 195.581 78.1907 195.575C77.7989 195.681 77.4307 195.86 77.1055 196.104C75.9969 196.765 75.0869 197.713 74.4717 198.85C72.8526 201.742 72.8585 205.282 72.5242 208.498C72.4127 209.604 70.6705 209.598 70.7644 208.498C70.823 207.91 70.8758 207.322 70.9286 206.764C70.8174 206.719 70.7158 206.653 70.6294 206.57C67.3151 203.418 60.7863 201.278 56.2694 202.266C55.7225 202.361 55.1988 202.561 54.7267 202.854C54.0462 203.306 53.8174 203.395 54.2456 203.859C55.1138 204.788 56.8443 205.253 57.8826 206.005C59.1364 207.02 60.2949 208.148 61.3435 209.374C62.6341 210.738 63.8718 212.538 65.5847 213.378C65.6825 213.423 65.7704 213.487 65.8428 213.566C69.468 215.718 72.7881 218.017 74.4541 222.057C75.1902 222.003 75.914 221.839 76.601 221.569C78.5016 220.587 80.2028 218.147 80.1207 215.889C79.4578 216.536 78.2084 215.707 78.7598 214.819C80.7894 211.573 79.798 208.234 78.5134 204.976L78.5603 204.953ZM81.8511 216.436C81.7012 217.645 81.3065 218.81 80.6912 219.86C80.0759 220.911 79.253 221.824 78.2729 222.545C77.5583 223.068 76.7496 223.447 75.8913 223.662C75.3047 223.785 73.8029 223.662 73.6035 224.156C73.2926 224.932 75.2636 227.413 75.6977 228.06C76.7829 229.671 77.7918 229.718 79.581 228.883C81.4058 227.977 83.0267 226.706 84.3442 225.149C85.7814 223.497 86.3797 221.669 85.0716 219.699C84.1648 218.461 83.0908 217.354 81.8804 216.412L81.8511 216.436ZM164.849 209.357C164.709 209.545 164.568 209.739 164.433 209.945L164.316 210.127C164.134 210.427 163.964 210.715 163.788 211.068V211.115C163.676 211.332 163.571 211.55 163.465 211.773C163.424 211.855 163.389 211.932 163.354 212.014C163.295 212.138 163.236 212.267 163.184 212.391C163.165 212.427 163.15 212.464 163.137 212.502L163.101 212.585C162.773 213.355 162.515 214.107 162.268 214.748L162.221 214.872C162.175 215.007 162.128 215.136 162.092 215.26L162.057 215.354C162.06 215.385 162.06 215.417 162.057 215.448L162.004 215.613L161.952 215.789C161.935 215.83 161.923 215.874 161.916 215.918C161.9 215.962 161.888 216.007 161.881 216.054C161.867 216.081 161.857 216.111 161.852 216.142C161.836 216.182 161.825 216.223 161.817 216.265C161.555 217.222 161.318 218.186 161.107 219.158C160.882 222.144 160.868 225.142 161.066 228.13C161.708 228.23 162.357 228.279 163.008 228.277H163.172C163.462 228.27 163.752 228.244 164.04 228.201C164.151 228.201 164.263 228.166 164.38 228.142C164.471 228.128 164.561 228.108 164.65 228.083C164.767 228.083 164.885 228.024 165.002 227.989C165.119 227.954 165.16 227.942 165.242 227.919L165.46 227.842L165.636 227.772C165.782 227.713 165.935 227.642 166.087 227.572C166.24 227.501 166.228 227.495 166.298 227.46L166.51 227.337L166.797 227.16L167.084 226.954L167.137 226.919L167.266 226.825L167.548 226.596C168.615 225.702 170.193 224.626 170.481 223.309C169.132 221.745 167.29 220.863 166.732 218.693C166.687 218.552 166.684 218.4 166.723 218.257C166.763 218.114 166.844 217.986 166.955 217.888C168.035 214.666 166.398 212.091 164.879 209.327L164.849 209.357ZM161.658 232.846L161.811 233.016C162.004 233.258 162.184 233.509 162.351 233.769C162.474 233.957 162.597 234.151 162.714 234.357C162.767 234.439 162.82 234.527 162.867 234.616C162.984 234.81 163.096 235.004 163.207 235.204C163.395 235.533 163.582 235.868 163.794 236.197C163.846 236.28 163.899 236.362 163.946 236.444C164.093 236.685 164.245 236.932 164.404 237.161C164.562 237.391 164.591 237.438 164.691 237.567C164.851 237.772 165.021 237.968 165.201 238.155C165.421 238.401 165.667 238.622 165.935 238.814L166.099 238.919C166.256 239.02 166.42 239.106 166.592 239.178L166.838 239.266C168.334 239.707 170.54 238.502 171.889 237.896L171.965 237.861C172.1 237.802 172.235 237.738 172.364 237.667L172.522 237.591L172.798 237.438C172.838 237.422 172.875 237.4 172.909 237.373L173.044 237.291C173.144 237.232 173.238 237.179 173.332 237.114L173.566 236.956C173.655 236.901 173.739 236.84 173.819 236.773C173.889 236.73 173.956 236.681 174.018 236.626C174.018 236.626 174.018 236.626 174.053 236.626L174.311 236.421L174.54 236.232C174.611 236.174 174.681 236.109 174.751 236.038L174.921 235.886C175.05 235.768 175.174 235.645 175.291 235.515C175.438 235.368 175.573 235.215 175.707 235.057C176.754 233.808 177.629 232.424 178.306 230.941C178.637 230.372 178.877 229.755 179.016 229.112C179.03 228.946 179.03 228.779 179.016 228.612C179.016 228.554 179.016 228.495 179.016 228.436C179.01 228.38 178.999 228.325 178.981 228.271C178.967 228.21 178.949 228.149 178.928 228.089V228.042C178.921 228.018 178.909 227.996 178.893 227.977C178.88 227.931 178.858 227.887 178.828 227.848C178.821 227.829 178.811 227.812 178.799 227.795C178.787 227.77 178.771 227.746 178.752 227.725L178.67 227.619L178.594 227.531L178.476 227.413L178.359 227.307C178.101 227.084 177.802 226.884 177.497 226.625C176.013 225.385 174.235 222.833 172.164 222.145C172.751 224.326 170.803 226.102 169.05 227.625C166.568 229.771 164.192 230.347 161.119 229.977C161.207 230.9 161.312 231.823 161.441 232.734C161.498 232.773 161.549 232.818 161.594 232.869L161.658 232.846ZM163.547 249.885C163.442 246.581 162.057 243.282 161.201 240.131C160.501 237.568 159.985 234.959 159.658 232.323C159.658 232.381 159.658 232.44 159.658 232.499C159.658 232.558 159.658 232.499 159.658 232.499C159.658 233.087 159.658 233.675 159.658 234.263C159.658 234.451 159.658 234.633 159.658 234.851C159.711 236.544 159.805 238.237 159.928 239.931C159.957 240.354 159.987 240.777 160.022 241.195L160.18 243.106C160.239 243.741 160.292 244.376 160.35 245.017C160.438 246.051 160.532 247.098 160.632 248.133C160.714 249.032 160.802 249.926 160.896 250.82C161.025 252.149 161.166 253.476 161.318 254.8C161.321 254.836 161.321 254.871 161.318 254.906C162.333 253.366 163.571 251.913 163.506 249.873L163.547 249.885ZM139.362 219.617C136.845 226.713 134.61 234.275 134.387 241.848V241.906C134.27 243.829 134.188 246.093 136.147 247.063C136.804 247.38 137.52 247.533 138.188 247.815C139.147 248.238 139.976 248.908 140.593 249.756C140.441 248.356 140.318 246.957 140.206 245.546C140.118 244.435 141.855 244.458 141.966 245.546C142.151 248.395 142.508 251.23 143.034 254.036C143.048 254.122 143.048 254.209 143.034 254.295C143.602 255.828 144.317 257.303 145.169 258.699C146.336 260.405 147.857 261.839 149.627 262.903C153.147 265.055 157.253 265.972 161.318 266.495C161.113 265.36 160.913 264.214 160.732 263.073C160.55 261.932 160.368 260.798 160.209 259.651C159.838 257.037 159.517 254.414 159.247 251.784C159.247 251.696 159.247 251.614 159.218 251.52C159.026 249.665 158.847 247.813 158.678 245.963C158.585 244.94 158.497 243.923 158.409 242.9C158.268 241.277 158.145 239.637 158.057 237.99C157.91 235.286 157.84 232.552 157.922 229.83C158.004 225.849 158.499 221.889 159.4 218.011C159.453 217.806 159.5 217.6 159.552 217.423C159.605 217.247 159.652 217.018 159.711 216.836C159.769 216.653 159.811 216.471 159.863 216.289C159.916 216.106 159.992 215.848 160.057 215.63C160.121 215.413 160.157 215.295 160.215 215.125C160.297 214.842 160.391 214.566 160.491 214.284C160.591 214.002 160.726 213.584 160.855 213.237C160.89 213.149 160.931 213.049 160.966 212.949C161.001 212.849 161.048 212.749 161.089 212.643C162.403 209.457 165.782 203.612 168.909 208.245C168.955 208.319 168.993 208.398 169.02 208.481C169.023 208.508 169.023 208.535 169.02 208.563C169.017 208.582 169.017 208.602 169.02 208.622C169.014 208.814 168.947 208.999 168.829 209.15C168.711 209.302 168.549 209.412 168.365 209.466C168.18 209.519 167.984 209.513 167.804 209.448C167.623 209.383 167.468 209.263 167.36 209.104C167.286 208.987 167.2 208.878 167.102 208.78C167.027 208.69 166.938 208.612 166.838 208.551C166.806 208.525 166.77 208.503 166.732 208.486C166.707 208.47 166.68 208.458 166.65 208.451C166.562 208.408 166.466 208.384 166.369 208.381C166.313 208.369 166.255 208.369 166.199 208.381C166.924 209.65 167.582 210.957 168.17 212.296C170.375 210.909 169.407 207.681 168.263 205.758C167.201 204.097 165.993 202.533 164.656 201.084C163.039 199.329 161.61 197.41 160.391 195.357C159.901 194.439 159.464 193.492 159.083 192.523C158.802 191.824 158.596 190.836 158.092 190.23C158.004 190.193 157.922 190.146 157.845 190.089C157.447 189.766 154.912 193.229 154.783 193.429C154.111 194.501 153.505 195.614 152.971 196.762L152.9 196.909C152.777 197.174 152.648 197.439 152.531 197.703C151.212 200.554 150.037 203.47 149.011 206.44C147.251 211.473 145.456 216.677 144.53 221.933C144.33 223.033 142.664 222.521 142.858 221.451C143.309 218.882 146.964 205.899 151.1 196.998C150.789 197.075 150.5 197.221 150.252 197.425C150.005 197.628 149.805 197.884 149.668 198.174L149.604 198.285C145.204 204.841 141.978 212.214 139.332 219.64L139.362 219.617ZM148.131 197.386C148.41 196.9 148.769 196.464 149.193 196.098C149.549 195.75 149.987 195.499 150.466 195.367C150.945 195.236 151.45 195.228 151.932 195.345C154.279 190.671 156.702 187.578 158.725 188.619C158.917 188.642 159.094 188.729 159.23 188.866C159.766 189.514 160.165 190.264 160.403 191.071C160.957 192.574 161.649 194.022 162.468 195.398C162.796 195.922 163.148 196.421 163.518 196.909C172.412 192.494 180.581 186.744 187.745 179.858C188.061 179.559 188.378 179.27 188.689 178.941C189.299 178.341 189.899 177.736 190.49 177.124C201.829 165.365 210.229 150.754 214.159 134.791C215.139 130.793 215.813 126.742 216.412 122.667C216.863 119.574 217.298 116.382 216.84 113.295C216.712 112.407 216.499 111.533 216.206 110.684C214.447 109.744 212.828 109.05 211.825 107.239C210.918 105.58 209.621 104.167 208.047 103.123C208.714 107.178 208.771 111.31 208.217 115.382C207.87 118.143 207.355 120.881 206.674 123.578C205.985 126.395 205.099 129.159 204.023 131.851C203.188 133.942 202.244 135.987 201.195 137.978C200.233 139.812 199.185 141.619 198.051 143.399C189.209 157.234 177.066 168.644 162.72 176.595C158.698 178.824 154.543 180.804 150.278 182.522C147.744 183.545 145.169 184.445 142.576 185.291C140.417 185.991 138.13 186.326 135.989 187.055C138.405 188.537 141.11 189.854 142.869 192.059C143.873 193.317 143.902 194.816 144.547 196.233C145.132 197.453 145.825 198.618 146.618 199.714C147.099 198.92 147.603 198.138 148.12 197.362L148.131 197.386ZM118.256 197.409C118.256 200.666 118.842 203.836 119.382 207.034C119.922 210.233 120.274 213.502 120.772 216.771C121.582 221.663 122.233 227.013 123.993 231.729C125.162 228.594 126.551 225.546 128.152 222.609C128.715 221.551 129.292 220.502 129.882 219.464C130.791 217.835 131.724 216.23 132.639 214.642C135.942 208.886 139.326 202.977 143.409 197.715C142.764 196.498 142.617 195.216 142.048 193.97C140.875 191.394 137.355 189.854 134.821 188.319C132.446 194.963 126.797 200.708 126.333 207.928C126.263 209.039 124.521 209.027 124.573 207.928C124.785 204.582 126.034 201.584 127.565 198.673C126.767 194.752 126.351 190.536 124.632 186.861C123.796 187.038 123.008 187.398 122.327 187.915C121.646 188.433 121.087 189.095 120.69 189.854C119.892 191.359 120.015 193.176 119.552 194.793C119.304 195.75 118.863 196.647 118.256 197.427V197.409ZM117.393 177.189C115.111 183.739 113.751 190.742 115.311 197.403C118.361 196.38 117.781 192.605 118.748 189.954C119.121 188.923 119.71 187.985 120.477 187.203C121.243 186.421 122.168 185.813 123.189 185.421C120.156 182.775 119.124 178.565 119.476 174.579C119.547 173.759 119.678 172.945 119.869 172.144C119.888 172.042 119.93 171.946 119.992 171.862C119.945 171.574 119.886 171.274 119.822 171.004C118.965 172.997 118.132 175.067 117.393 177.189ZM12.5089 145.492C15.3716 149.343 18.9909 151.107 23.0971 153.271C25.8365 154.723 28.1947 156.128 31.1629 157.057C34.7897 158.178 38.4826 159.072 42.2203 159.732C51.4413 161.451 60.8679 161.77 70.1836 160.679C81.2411 159.415 92.0287 157.104 102.001 151.977C109.398 148.173 115.898 142.928 123.23 139.013C128.134 136.396 132.938 134.379 138.482 133.544C143.744 132.766 149.087 132.7 154.367 133.35C155.464 133.486 155.458 135.226 154.367 135.114C149.023 134.436 143.61 134.517 138.288 135.355C132.95 136.243 128.287 138.295 123.553 140.859C120.297 142.623 117.212 144.663 114.126 146.703L112.425 147.826C110.7 148.961 108.97 150.084 107.198 151.136C106.676 151.448 106.154 151.754 105.62 152.054C105.239 152.271 104.852 152.483 104.447 152.689C94.5863 158.016 83.9453 160.738 72.882 162.125C68.0895 162.713 63.3028 163.301 58.4692 163.219C53.8578 163.113 49.2594 162.685 44.7075 161.937C40.2258 161.232 35.2573 160.461 30.7288 158.945C33.0107 162.749 37.5099 165.7 41.6865 167.441C47.9807 170.051 54.8616 171.121 61.631 171.556C66.574 171.87 71.5307 171.907 76.4779 171.668C82.8073 171.392 89.5708 171.204 95.7243 169.628C100.464 168.411 104.998 166.323 109.457 164.16L109.556 164.113C111.762 163.043 113.944 161.949 116.126 160.938C122.819 157.839 129.583 154.841 136.704 152.853C137.778 152.547 138.218 154.235 137.144 154.541C130.293 156.452 123.781 159.309 117.335 162.29C116.22 162.807 115.108 163.335 113.997 163.872C115.659 163.914 117.267 164.475 118.596 165.477C118.731 165.583 118.86 165.694 118.977 165.806C119.095 165.918 119.194 166.006 119.294 166.112L119.353 166.176C119.459 166.284 119.559 166.398 119.652 166.518C119.672 166.534 119.69 166.554 119.705 166.576C119.798 166.682 119.881 166.794 119.963 166.906C120.045 167.017 120.127 167.135 120.203 167.258C120.279 167.382 120.362 167.505 120.438 167.629L120.561 167.852C120.613 167.942 120.66 168.034 120.702 168.129L120.825 168.375C120.822 168.393 120.822 168.411 120.825 168.428L120.942 168.693C120.977 168.787 121.019 168.881 121.054 168.981C121.089 169.081 121.107 169.116 121.13 169.181C121.153 169.246 121.183 169.322 121.206 169.387C121.23 169.451 121.247 169.51 121.265 169.575C121.558 170.533 121.755 171.518 121.852 172.515C122.048 174.912 122.007 177.323 121.728 179.711V179.823C122.313 181.94 123.675 183.757 125.541 184.909C125.714 185.009 125.845 185.167 125.911 185.356C125.954 185.409 125.991 185.466 126.022 185.526C127.671 188.866 128.263 192.582 128.955 196.263C130.668 193.246 132.475 190.26 133.478 187.008C133.47 186.838 133.505 186.668 133.581 186.516C133.658 186.364 133.771 186.233 133.912 186.138C133.996 186.041 134.103 185.966 134.223 185.92C135.956 185.24 137.743 184.711 139.567 184.339C141.841 183.733 144.082 183.013 146.284 182.181C147.527 181.74 148.759 181.27 149.991 180.77C152.695 179.676 155.358 178.459 157.963 177.148C165.087 173.593 171.768 169.208 177.866 164.083C183.988 158.917 189.413 152.974 194.004 146.403C194.719 145.38 195.415 144.345 196.092 143.299C196.274 143.022 196.45 142.711 196.626 142.458C197.212 141.5 197.828 140.529 198.386 139.548L198.861 138.73C198.861 138.73 198.861 138.689 198.89 138.672C199.13 138.242 199.365 137.813 199.6 137.384C199.729 137.143 199.858 136.908 199.975 136.667C200.093 136.425 200.175 136.29 200.269 136.079C200.896 134.85 201.489 133.597 202.028 132.321C202.146 132.051 202.257 131.775 202.374 131.498L202.691 130.693C202.702 130.674 202.712 130.654 202.72 130.634C203.207 129.382 203.653 128.112 204.04 126.812C204.169 126.395 204.293 125.971 204.41 125.554C204.557 125.037 204.703 124.513 204.838 123.99C204.973 123.467 205.108 122.973 205.231 122.461C205.244 122.421 205.253 122.38 205.26 122.338C205.325 122.079 205.39 121.815 205.448 121.556C205.554 121.091 205.659 120.621 205.753 120.156C205.812 119.904 205.865 119.651 205.912 119.392C206.029 118.816 206.135 118.24 206.228 117.664C206.293 117.275 206.357 116.887 206.41 116.488C206.41 116.488 206.41 116.446 206.41 116.423C206.457 116.082 206.51 115.741 206.551 115.4C206.551 115.2 206.604 115 206.621 114.812V114.624C206.621 114.53 206.621 114.441 206.651 114.353C206.68 114.265 206.651 114.224 206.651 114.165C206.68 113.883 206.709 113.577 206.727 113.318C206.727 113.318 206.727 113.318 206.727 113.283C206.727 113.007 206.768 112.725 206.786 112.454C206.786 112.454 206.786 112.389 206.786 112.36C206.833 111.619 206.862 110.873 206.868 110.132C206.913 107.461 206.654 104.794 206.093 102.182C206.076 102.157 206.062 102.129 206.052 102.1C204.879 98.6781 202.808 95.5855 200.656 92.6927C198.516 89.6764 195.727 87.1807 192.496 85.3902C192.405 85.3401 192.322 85.2766 192.25 85.202C192.086 85.1475 191.944 85.0412 191.846 84.8991C191.748 84.7571 191.698 84.5869 191.704 84.4141C191.704 81.1921 189.446 78.1876 187.973 75.4536C186.26 72.2668 184.542 69.1329 182.524 66.1226C178.359 59.9136 173.496 53.934 167.677 49.2186C156.713 40.3344 142.336 34.9016 128.228 33.8374C130.637 35.2928 133.142 36.5833 135.725 37.7003C136.739 38.1354 136.27 39.817 135.244 39.376C131.433 37.6613 127.765 35.6441 124.274 33.3435C120.039 30.633 116.719 26.6936 112.601 23.8067C110.313 22.1957 107.462 20.4847 104.535 20.914C101.778 21.3196 100.03 23.7009 98.669 25.9058C95.7771 30.4919 92.4628 34.69 87.0367 36.1599C86.8162 36.2133 86.5835 36.1782 86.3886 36.0618C86.1936 35.9455 86.0518 35.7573 85.9935 35.5376C85.9353 35.3178 85.9651 35.0839 86.0768 34.8859C86.1884 34.6879 86.373 34.5416 86.5909 34.4783C87.2935 34.2889 87.9784 34.039 88.6381 33.7316C84.9166 33.673 81.2475 32.8422 77.8622 31.2915C75.4748 30.2391 73.1694 29.0514 70.782 27.9754C68.6291 26.9994 66.2593 25.6941 63.9011 25.2708C60.7217 24.6828 60.8801 27.2934 61.1852 29.5218C61.3991 31.177 61.5049 32.8445 61.5019 34.5136C61.543 37.3887 61.4198 40.4461 60.4988 43.2096L60.6572 43.0861C62.81 41.3222 64.8925 39.3996 67.4383 38.1825C68.4414 37.7062 69.3096 39.2173 68.3006 39.6994C65.9836 40.8048 64.0829 42.4805 62.1296 44.115C60.0797 45.7585 57.9242 47.265 55.6769 48.6247C50.9841 51.6057 46.3558 54.6925 41.5985 57.55C33.1866 62.5654 24.9918 68.2098 18.6858 75.8122C11.7346 84.2083 8.3147 94.58 6.85992 105.269C5.61047 114.471 5.20572 124.084 7.32922 133.162C8.34988 137.519 9.95132 141.823 12.6086 145.51" fill="#211F1F"/>
<path d="M38.2019 95.2503C40.6422 96.7437 42.6543 98.4959 43.2819 101.271C43.4589 101.507 43.5739 101.784 43.6163 102.077C43.8803 103.758 43.6163 105.675 41.9679 106.569C40.4545 107.386 38.5832 106.663 37.5919 105.393C35.9201 103.247 36.7354 99.9658 35.6502 97.7492C34.87 96.1499 36.5712 94.2802 38.2019 95.2738" fill="#211F1F"/>
<path d="M58.293 18.3857C57.5363 19.2147 56.3221 17.9683 57.0788 17.1392C59.4252 14.5698 61.3023 10.9774 60.8506 7.40253C60.7157 6.30303 62.3993 5.84442 62.5342 6.95568C63.068 11.2184 61.1322 15.293 58.293 18.3857Z" fill="#211F1F"/>
<path d="M108.107 34.8958C108.161 34.8537 108.22 34.82 108.283 34.7958C108.315 34.7695 108.351 34.7478 108.389 34.7311C110.225 33.8315 113.011 35.7365 114.425 36.7949C116.132 38.0531 118.285 39.8288 119.276 41.822C119.335 41.8859 119.379 41.9623 119.405 42.0454C119.441 42.1336 119.464 42.2277 119.493 42.3159C119.507 42.3798 119.507 42.4459 119.493 42.5099C120.08 45.1322 119.493 47.9309 117.27 49.7066C115.299 51.2823 112.02 51.2823 109.838 50.2005C107.222 48.9069 106.019 46.2258 105.831 43.4212C105.644 40.6166 105.714 36.8066 108.084 34.8958H108.107ZM109.339 48.6776C110.282 49.3662 111.391 49.7907 112.552 49.9075C113.713 50.0243 114.884 49.8291 115.944 49.342C118.484 48.0779 119.059 44.9617 118.443 42.4687C117.722 40.7401 115.686 39.1291 114.278 37.9826C113.181 37.083 110.301 34.9134 108.87 35.6307C108.832 35.6486 108.793 35.6623 108.753 35.6719C106.876 37.2241 106.811 40.0169 106.805 42.2806C106.805 44.7148 107.327 47.1313 109.339 48.6953" fill="#211F1F"/>
<path d="M14.8142 92.7456C15.7938 91.1287 18.5098 89.7411 20.0584 91.4873C20.9735 92.5339 20.5746 93.8392 19.9352 94.874C19.7885 95.1268 19.4483 95.5972 19.3897 95.7266C19.0436 96.5732 19.2078 97.6963 19.2078 98.5841C19.2136 98.9021 19.1368 99.2161 18.9849 99.4954C18.8899 99.8244 18.7171 100.125 18.4812 100.373C18.2453 100.621 17.9533 100.808 17.6298 100.918C15.7703 101.647 14.3801 99.7953 14.0574 98.2019C13.6454 96.3512 13.9141 94.4135 14.8142 92.7456Z" fill="#211F1F"/>
<path d="M113.75 39.7171C119.124 39.7171 119.165 48.0603 113.786 48.0779C108.407 48.0956 108.365 39.7406 113.75 39.7171Z" fill="#211F1F"/>
</svg>
